/* XPM */
static char *_bfcb8009e2a4fa68bd0abf51cd1643bREzZZn3HTMbC6B6P[] = {
/* columns rows colors chars-per-pixel */
"16 16 2 1 ",
"  c black",
". c #E4892D",
/* pixels */
"  .  . ...  .. .",
". .  .  .  ..  .",
"..  ..  .. ..  .",
".   ..   .... ..",
"..  ..   ...   .",
" . ....  ..  ...",
".  .. .  .    ..",
"   ..   ..   ...",
"   ..  ...  .. .",
"  ..  ...   ..  ",
" ...  ..   ...  ",
" ..  ..    ..  .",
"..   .   . .  ..",
".   .   .... ...",
".  .   ....  . .",
"  .. . ...   . ."
};
