/* XPM */
static char *Untitled1727852316[] = {
/* columns rows colors chars-per-pixel */
"64 64 92 1 ",
"  c #000247",
". c #00014C",
"X c #04094B",
"o c #090C4C",
"O c #0C144D",
"+ c #0E184E",
"@ c #11184B",
"# c #000053",
"$ c #080953",
"% c #00005B",
"& c #060E5C",
"* c #0E1652",
"= c #0D135D",
"- c #0E195A",
"; c #111757",
": c #121A56",
"> c #131A5C",
", c #16214D",
"< c #1A254D",
"1 c #1E294D",
"2 c #162057",
"3 c #1A2454",
"4 c #1D2A53",
"5 c #172259",
"6 c #1D285D",
"7 c #222F4D",
"8 c #26344D",
"9 c #2C3C4E",
"0 c #222F53",
"q c #242D5B",
"w c #253354",
"e c #2B3553",
"r c #2C3B54",
"t c #23325E",
"y c #2B3C5C",
"u c #333D5D",
"i c #000064",
"p c #090B66",
"a c #00006C",
"s c #050A6F",
"d c #090E6B",
"f c #061061",
"g c #0D1561",
"h c #06106C",
"j c #101467",
"k c #131A62",
"l c #141B6D",
"z c #000074",
"x c #00007C",
"c c #060B7C",
"v c #090D7C",
"b c #0B1372",
"n c #0C147A",
"m c #121677",
"M c #151976",
"N c #131C7A",
"B c #192565",
"V c #1E2A65",
"C c #1F2B6C",
"Z c #1F267F",
"A c #242E63",
"S c #242C69",
"D c #253363",
"F c #283766",
"G c #2A3A65",
"H c #25326C",
"J c #2C356D",
"K c #2F3A72",
"L c #2F404F",
"P c #32444F",
"I c #35484F",
"U c #2F4053",
"Y c #2F405A",
"T c #334552",
"R c #394656",
"E c #364950",
"W c #3D4A56",
"Q c #35415F",
"! c #39465F",
"~ c #3D4A5B",
"^ c #2F4060",
"/ c #394666",
"( c #3C4963",
") c #404E56",
"_ c #414F58",
"` c #435156",
"' c #000083",
"] c #040885",
"[ c #01008B",
"{ c #000093",
"} c #00009A",
"| c #222C81",
/* pixels */
"x'xxxx'x'xx'''xxxxzzaaaiii%%i%iiiiaaaazxxx''xxx'xxx'x'x'''xxxxxz",
"xxxxxxxx'xx'xxxxxxxzzzzaaii%%%%%%iiiaaazzzxxxxxxxxxxxxxxxxxxxxxz",
"zzzzzzzxxxxxx'x''xxxxxxzzas%%%%%%%#%iiiaazzzzzzzzzzzxxzxxx'''''x",
"zazzzzzzzxzxx'''[''''''xxxzaaii%%%###%%iiaaazzazazzzzzxxx'''''''",
"aaaaaaazzxxx''''[[[[[[[[''xxzaiii%####%%%iiiaaaaaaazzzxxx''''[[[",
"iiiaaaazzzzxx''[[[{{{{[{[[['xzzii%%%####%%%iiiiiaaaazzzzxx''[[[{",
"i%iiiiaaazzxx''[[{{{{{}}}{{''xzzaii%##%#%%%%%%iiiiaiaazzzx''[[{{",
"%%%i````/azC~x''[[{{}}}}}}}[[''zzai%%#######%%%%i%iiaaazzxx'[[[[",
"##%%)iiiiaQ`~zx''[[}}}}}}}}}{['xzaa%%##########%%%%iiaaazzxxx'[{",
"#$##)##%%iaj~zzxx'[[(`````}}}{['J~`~A>)##re;)R_R*##%%%iaaazzxx'[",
"###$````;iik~aazxx''[}}{}}}}}{{|(MbQA>)##re;)3$Te####%i%iiaazxx'",
".##.)######>Wiaazxx'(`````}}{{{KKxx^SkR%%ee+W.#ee#######%iiaazxx",
"#..#)..##.#:R%%iazzz''[[[{}{{{{|/nm!Aj)=:Re*W..ee...##.##%%%iaaz",
".#..`.....r```q%iaazzx'[[{[}{{{{K_~!Sau))Re;W##ee......####%%iaa",
"###......##.#.###%iazzzx'[[{{[{[''N(laaii%%####.#......#.#.##%%i",
"###.............##%iiazzx''[[[[[(`_Jzzai%%%###.#.............##%",
"###...... . ......##%iaazxxx''[[['xxzzaii%%####..#.............#",
"##.#................#%iiazxxx'''''xxzzziii%%%###....... ....# ..",
"##...... .. ..........#%iiazzxxxxxxzxzaai%%%%##....   .. ... .. ",
"###..... .... . .......#%%iaazzxxxxxzzaii%%%%#####... .... .....",
"#####......... ... .... .##iiazzzxzxzaaiii%%%####.#. .. ...... .",
"%%###.#....................%%%iiaaaaaaiai%%%%#%###.#..... ......",
"%######..... . .  .. . .....##%%iiaiaiiii%%%%%#######. ..  ..  .",
"##%#####........    . ........###%%i%iii%#%%%#%%######.......   ",
"%##%#%#######... ................#####%%%###%#####%#%#####.... .",
"#%##%%%%%%##%###.. ...... . .... .. ##.#.#####%##%%%%%##%#%##...",
"##%$EEEEr%rTTy%%%#...........  ..   .....#.#####%%%%%%%%%%%%%%#.",
"###%E%%%iiyggT6i%%%%##.. ..  ...............#.#%%%%%iiiiiiiiii%%",
"##%%I%%iiiiaayBaaaiiUEEEII.....XPII8.<PXX9,.0TIw%%%%%iiiaazaaaai",
".##%EEIIkiaaVyzzzzzzaai%%##... ...OPO.7991.,9Oor3%%%iiaaazzzzzzz",
"###$E%%iiiiDGzzzxxxxYIEEII###..o8PII@ .99..8IEIEw%i%%iiiazzzxxxx",
".##%E%%%%&rtazzzxxxxxxzzzaa%%..79++P@.7991.<UO###%%%%%%iaaazzxxx",
"..##I####2EEEErzzxxxxxxxzzzii%#*9IPP@<9XoP,.8LEP3######%%iaaazzx",
".#.####...###%iiiazxxxxxxzzzaa%#.... .  .......#####..###%%%iaax",
"#.###........##%%iiaazzzzzzzaaii%%##.....#....####........##%%%a",
".######.........##%%iiaaazzaaaaiai%#####.####..######.#......##%",
"%%i%i%%####. .....#%%iiiiaaaaaaaiiii%%%ii%%%%%%%i%%%###.. ....##",
"iiiaiiiii%%##..#####%%iiiaaaaaaaaiaaiaaiiiiiiiiiaiiiii%%##.##.##",
"aazzzzzzzaaaii%%%%%%%%iiiiaaaaazzazazzzaaaaazaazzzzzzzzaaii%%%%%",
"zzxxx'''''xzzzzaiiiiiiiiaaaazazzzzzzzzxxxzxzxzzxxxx'''xxxzzaaiii",
"'''''[[[{['''xxzzaaaaaaaaaazazzzzzxxxxxxxxxxx'''''[[[[[''x'xzzaa",
"'[[[[[{[{[[[[''xxzzaaazazaazzzzzxxxxxxxx'''''['[[[[[{{{[[['xxxza",
"[[[[[{{{}[{[[''xzzzaaaaaaaazzzzzxxxxx'''''[[[[[[[[{{{}{[[[''xzzz",
"[[[[[[[[{[[['''xxzzaaaiiaiisazzzzzzxxxx'[[[[[[[[[[[[[[[[['''xxzz",
"[''[''[[[''''xxxzzzzaiiiiiiiiaahTaazzxxx''['['''''['[[''''''xzzz",
"xx'xEEIIGxFTEGcxxxzzzaaaii%%%%%fTaaaaazxxxx''''x'xx'x'x'x'xxxxxx",
"xxxcExxxxxGncGCxxxxxzzaaaii%%%%&T%iiaaazzxzxxxxxxxxxxxxxx'xxxxxz",
"zzzzTzzxxxxxnQZ'x'xxYEEEEEiii%%&P%;r5itTEDzDDzzDCzzzxxxxxx'x'''x",
"zazaIEEEnzxDEH]'''''[''xxxzaaii&U:U:#5r=prBdTasUszzzzzxxxx''''''",
"aaasIaazzxxxvFH[[[[[^EEEEE'xzaifITw##wTIIItayVVtaaaazxzxxx'''[[{",
"iiaiTaazzMGbvGH[[[{[{[{[[[[xxzzfT=U4#3U-%%i%krUdaaaaazzzxx''[[[{",
"%iipIiaaabyTTG][[{{{}{}}}{{['xzhTi&U4#wTIP3%%rriiiiaazzzxx''[[[{",
"%%%ii%iaaaazxx''[[{{}}}}}}}[[''xzai%#######%%L-%%iiiaaazzzx'[[[{",
"###%%%iiaaazzxx''[[}}}}}}}}}[['xxaii%%######4r#%%%%iiaaazzxxx'[{",
"###%%#%%%iiaazzxx'[[}}}}}}}}}{['xzzai%%############%%%iaaazzxx'[",
"#######%%%iiaaazxx][{{{}}}}}}{[['xzaii%%#############%%iiaaazxx'",
".#.########%iiiazzxx'[[{{}}}}{{[''zzaii%#%#.#.#..#.#####%iiiazxx",
".#..  .#####%%iiazzx''[{{{{{{{{{['xzaai%%####.......#####%%iiaaz",
"###......#.###%%iaaazx''[{{{{{{['''xzaii%%###.###......#####%iaa",
"###.......#...##%%iazzxx'[[{{{{[''xxzaii%%%####...........###%%i",
"#.#..............#%iaazzxx'[[[[[['xxzaai%%%#####............#.#%",
"###...............##%iizzxx'''['''xxzzaiii%%###.#..............#",
"##........ ...#.....#%iiazzxx'['''xxzzzii%%%###.#...............",
"####...  .............$%iaazzzxxxxxxxzaaii%%%###....  .. ......."
};
