/* XPM */
static char *ee0be19c88974e4da61c79663338ff8fCSsRRKa46KBzK44I[] = {
/* columns rows colors chars-per-pixel */
"64 64 159 2 ",
"   c #47704C",
".  c #311C0C",
"X  c #76330E",
"o  c None",
"O  c #7B3E13",
"+  c #41200D",
"@  c #663714",
"#  c #3F635D",
"$  c #281509",
"%  c #292822",
"&  c #474838",
"*  c #23180F",
"=  c #844213",
"-  c #3A1F0D",
";  c #253A39",
":  c #3C9090",
">  c #403727",
",  c #5B2C10",
"<  c #4A240D",
"1  c #368686",
"2  c #3A6A6A",
"3  c #773A10",
"4  c #653010",
"5  c SaddleBrown",
"6  c #BA6744",
"7  c #702601",
"8  c #BC6846",
"9  c #E77B47",
"0  c #8B3A15",
"q  c #994119",
"w  c #BF6844",
"e  c #B96846",
"r  c #389899",
"t  c #C86B45",
"y  c #D47246",
"u  c #8E401C",
"i  c #C06A43",
"p  c #8B3D18",
"a  c #BA6644",
"s  c #CA6D45",
"d  c #6B949C",
"f  c #E3753F",
"g  c #AE4F21",
"h  c #CE6E45",
"j  c #2F1004",
"k  c #D77546",
"l  c #552005",
"z  c #CA6531",
"x  c #ED7E47",
"c  c #C46A44",
"v  c #9A4B27",
"b  c #4FCFCF",
"n  c #8E421B",
"m  c #C76D45",
"M  c #903C15",
"N  c #D26F45",
"B  c #CD6D47",
"V  c #6F97A0",
"C  c #B2613E",
"Z  c #65A9AF",
"A  c #AA4E22",
"S  c #D26935",
"D  c #6E949D",
"F  c #D06E46",
"G  c #5ECACE",
"H  c #5FC7CB",
"J  c #D36B37",
"K  c #A55532",
"L  c #0F2425",
"P  c #B76543",
"I  c #A2532F",
"U  c #23292A",
"Y  c #60C1C6",
"T  c #6A8F95",
"R  c #102325",
"E  c #D36A37",
"W  c #C6673E",
"Q  c #3C5255",
"!  c #A85631",
"~  c #D56F45",
"^  c #9C4C28",
"/  c #66A2A9",
"(  c #60BBBF",
")  c #5ECFD2",
"_  c #59E4E5",
"`  c #69979F",
"'  c #62ACB2",
"]  c #4CD5D5",
"[  c #B75B32",
"{  c #391406",
"}  c #A75028",
"|  c #863510",
" . c #E17948",
".. c #65AEB3",
"X. c #6D5F55",
"o. c #B77052",
"O. c #5BDDDF",
"+. c #A34C25",
"@. c #81320D",
"#. c #7C300B",
"$. c #BA6543",
"%. c #4C1D08",
"&. c #41A9AA",
"*. c #8D5C46",
"=. c #37494B",
"-. c #6C9AA2",
";. c #A04921",
":. c #B15429",
">. c #253536",
",. c #3C7273",
"<. c #60B3B8",
"1. c #5BD4D7",
"2. c #4B9799",
"3. c #57E9E9",
"4. c #BC6138",
"5. c #8D4613",
"6. c #934420",
"7. c #B6785D",
"8. c #456267",
"9. c #42595D",
"0. c #C86631",
"q. c #DE7443",
"w. c #51B7B9",
"e. c #722E0E",
"r. c #6A2809",
"t. c #3B3331",
"y. c #3F4E4F",
"u. c #50C3C4",
"i. c #5BD8DA",
"p. c #55F0EF",
"a. c #6D7168",
"s. c #974722",
"d. c #7F3B1D",
"f. c #D1754A",
"g. c #612406",
"h. c #638991",
"j. c #387B7D",
"k. c #6B4B30",
"l. c #639AA0",
"z. c #553E2F",
"x. c #995534",
"c. c #331B11",
"v. c #675043",
"b. c #CD9173",
"n. c #CF7C54",
"m. c #CE8866",
"M. c #894325",
"N. c #B05833",
"B. c #3F1A0B",
"V. c #5B777F",
"C. c #CE8E6E",
"Z. c #CF815C",
"A. c #3DA1A2",
"S. c #834B31",
"D. c #498687",
"F. c #7F837F",
"G. c #6D807F",
"H. c #657F6E",
"J. c #838788",
/* pixels */
"                  5 5 5 5 5 5 5 5 5 5 5 5 5 5 5 5 5 o = - * * * * * * * @ o 5 5 5 5 5 5 5 5 5 5 5 5 5 5 5 5 5                   ",
"                  5 5 5 5 5 5 5 5 5 5 5 5 5 5 o = < - > 2.&.&.&.&.&.&.&.Q - - @ o 5 5 5 5 5 5 5 5 5 5 5 5 5 5                   ",
"                  5 5 5 5 5 5 5 5 5 5 5 5 o O + > 2.A.&.3.G Y Y Y ( Y 3.u.A.A.# - @ o 5 5 5 5 5 5 5 5 5 5 5 5                   ",
"                  5 5 5 5 5 5 5 5 5 5 o O + > : A.Y Y Y Y G / d d ` Y H Y Y Y &.r # - @ o 5 5 5 5 5 5 5 5 5 5                   ",
"                  5 5 5 5 5 5 5 5 5.O + & : &.p.Y ` D d / _ ..D V -.O.( D D d .._ b r # - 4 o 5 5 5 5 5 5 5 5                   ",
"                  5 5 5 5 5 5 5 5.O & 1 r H G G Y -.V V ` j.Q =.=.=.2 h.V -.` <.G H G ' 1 # @ o 5 5 5 5 5 5 5                   ",
"                  5 5 5 5 5 5 5.3 & &.p.( ` d / H ( 9.=.=.c.{ { { { { t.=.=.2.) ..d d Z O.] 2 @ o 5 5 5 5 5 5                   ",
"                  5 5 5 5 5 5.3 & 2.) G ( ` V h.8.,.c.{ { r.7 7 7 7 7 %.{ { 9.2 V.V D Z H ) w.# @ o 5 5 5 5 5                   ",
"                  5 5 5 5 5.3 & 2.( d Z ) ' 9.=.c.{ r.7 #.+.s.6.6.6.6.#.7 7 %.j t.Q D.) ( d Z w.# @ o 5 5 5 5                   ",
"                  5 5 5 5 O & 2.( ` ` V l.,.c.{ r.e.u n | f s e 8 8 e p q ;.@.7 %.j =.2.V D d Z w.# @ 5 5 5 5                   ",
"                  5 5 5 5.< ,._ ..D V h.y.B.r.e.p 6.$.W M f s 6 6 6 e p z 9 :.u #.7 %.t.V.V d / ) w.* = 5 5 5                   ",
"                  5 5 5 O & : O.) ..h.y.B.#.q s.P e w W M f s 6 6 6 a p z  .F t I u | l t.V./ Y i.w.Q @ 5 5 5                   ",
"                  5 5 5.< j.) ` <.<.y.B.r.q x N 8 6 c W M f s 6 6 6 a p z k t s t N } 7 l t.2.H ` <.u.% = 5 5                   ",
"                  5 5 O & r Y d -.8.j e.@.q x ~ i w F W M f s 6 w 8 a p z k c F N y } @.0 B.>.V d Z w.y.O 5 5                   ",
"                  5 5.< 1 G ` D h.y.{ p I q x N h i h 4.0 f s w h w a p 0.k a t ~ N } g z l % V.d d ' u.% = 5                   ",
"                  5 = > r G ' / 8.j e.s.K q 9 t F i h C 0 f s B N i a p 0.k a t ~ s ^ g S #.%.>.-.' ( u.=.O 5                   ",
"                  o + 1 Y Y _ ( y.{ p P K q 9 t B c h C 0 f h B ~ c a p 0.k a c N t v g 9 I l % 2.O.1.<.u.% O                   ",
"                  o - : H -./ 8.c.r.6.e K q 9 c B h h C 0 f h B ~ i a p 0.k a 6 t t v g 9 K #.%.>.l.-.' b % O                   ",
"                  o - : H d V 9.j p P 8 K q 9 w i h i C 0 f s h N i a p 0.k a e m s ^ g 9 6 I %.U T ` Z b % O                   ",
"                  = > r Y D T y.j u 6 8 K q 9 w i s 8 C 0 f s h h c a p 0.k a e m ~ } g 9 e K l U h.D Z u.; O                   ",
"                  < D.u.Z / 8.c.r.6.6 8 K q 9 w 8 s 8 C 0 f h B c s w p z k 6 e m y } g 9 e ! e.%.; l./ <.w.%                   ",
"                  . r p._ 3.j.j ;.y 6 8 K q 9 i 6 8 e C 0 f q.F i B i p z k 6 e m ~ } g 9 6 P ^ l ; i._ 3.] L                   ",
"                  . r 1.Z ..9.j A 9 8 8 K q 9 i 6 6 e C 0 f q.c 8 B i p z k 6 e m y } g 9 6 8 ! l U / ' ( b L                   ",
"                  . r H d V Q j +. .P P I q  .6 P P P C 0 q.y 6 $.t w p z y P P $.w ^ A  .$.$.K l U T D Z b L                   ",
"                  . r H d D X.g.| q 0 0 | @.q p 0 0 0 0 #.M M 0 0 M 0 #.0 M p 0 0 0 @.| q 0 0 | 7 z.T d Z b L                   ",
"                  . r G ` a.x.J J E J J J E E E E E E J J J E E J J E J J E E J J E J J E J J J J 4.X.d ' b L                   ",
"                  . r p.O.H.g x y y Z.C.y y y y n.b.f.y y y y f.b.n.y y y y y m.m.y y y y Z.C.f.y 4.k.G _ ] L                   ",
"                  . r O.( a.:. .a a o.7.e a 6 a e 7.e a a a $.e 7.o.a a a a 6 o.o.e e a $.o.7.e 8 ! k...H ] L                   ",
"                  . r H D G.*.s.n n u u u u u n u n u u u u u u u u n n u u u u u u u u u u n n n S.a.T Z b L                   ",
"                  . r H d V 9.%.7 7 7 7 7 7 7 7 7 7 7 7 7 7 7 7 7 7 7 7 7 7 7 7 7 7 7 7 7 7 7 7 g.t.T D Z b L                   ",
"                  . r H d V Q j M :.^ ^ n | [ } ^ ^ ^ s.@.:.:.^ v v } | ;.:.^ ^ ^ ^ p q :.+.} n l U T d Z b L                   ",
"                  . r _ G ) ,.j A 9 8 8 K q x ~ m 8 8 C 0 f q.i 8 8 s q z k 6 8 8 8 v g 9 t h ! l >.Y G i.] L                   ",
"                  . r _ G ) ,.j A 9 8 8 K q x h h w e C 0 f q.t w 6 s q z k 6 6 6 8 v g 9 s N N.l >.Y G 1.] L                   ",
"                  . r H d V Q j A 9 C *.K q 9 t B w e C 0 f ~ F c c h q z k e 6 6 8 v g x h F [ l U T D Z b L                   ",
"                  . r H d -.Q j A f.X.X.S.q 9 c F c 8 C 0 f h B i B s u z k a w w 8 v g x s c [ l U T D Z b L                   ",
"                  . r H d V Q j A e X.J.z.q 9 c B F w C 0 f s h t h i p z k a t t 8 v g x s c [ l U T d Z b L                   ",
"                  . r O.( Y 2 j g m X.a.k.q 9 w w h c C 0 f s m N ~ i p z k P t m 8 v g x s c [ l >.<.( G ] L                   ",
"                  . r p.O.O.j.j A 9 *.v.x.q 9 i 8 s h C 0 f s a h ~ i p z k e t t 8 v g x h s [ l ; ) O._ ] L                   ",
"                  . r G ` -.Q j A 9 *.v.I q 9 i a w B C 0 f s 6 h N i p z k P t t 8 v g x N N N.l U d ` ' b L                   ",
"                  . r H d V Q j A 9 *.v.I q 9 i 6 w B C 0 f m 6 h N i p z k P t t 8 v g x F h ! l U T D Z b L                   ",
"                  . r H D V Q j A 9 *.v.I q 9 i 6 w F 4.0 f m 6 h N i p z k P t t 8 v g 9 c h ! l U T D Z b L                   ",
"                  . r 1.Z ..8.j A 9 *.v.K q 9 w 6 w h W M f m 6 h N i p z k w s t i v g 9 c h ! l U / ' ( b L                   ",
"                  . r p._ 3.j.j A  .*.X.x.q 9 w 6 e i W M f m 6 h N i p z k m N N m v g 9 c ~ [ l ; i._ 3.] L                   ",
"                  . r ) / / 9.j A e X.F.z.q 9 i 6 e w W M f m 6 h ~ i p z k m N ~ m v g 9 c N [ l U l./ <.b L                   ",
"                  . r H D V Q j } o.X.F.z.q 9 i e e w W M f m 6 B F i p z k t N N m v g 9 c s ! l U T D Z b L                   ",
"                  . r H d V Q j A  .*.X.x.q 9 i e e w W M f m 6 8 w a p z k t t t m v g 9 c s ! l U T D Z b L                   ",
"                  . r G / / 9.j A 9 P C K q 9 i e e w W M f s 6 6 e a p z 9 N c t m v g 9 8 i ! l U l./ <.b L                   ",
"                  . r p._ _ j.j A 9 6 8 K q 9 i e e w W M f s 6 6 6 a p z 9 t 8 t s ^ g 9 6 e ! l ; i._ 3.] L                   ",
"                  . r 1.' ..8.j A 9 6 8 K q 9 w 6 e w W M f s 6 6 6 6 p z 9 c 6 t N } g 9 6 8 ! l U / ' ( b L                   ",
"                  . r H d V Q j A  .$.a I q  .6 P 6 m 4.0 q.m P P P P p 0. .B w a t } A  .$.a K l U T d Z b L                   ",
"                  . r H d D X.g.| q 0 0 | @.q p 0 p M 0 #.q M 0 0 0 p #.M q M p p M | | q 0 0 | 7 z.T d Z b L                   ",
"                  . r H ` a.x.J E S S S E J S E E J S E E S S E E S S J S S S S S S S J S S S S E 4.X.d ' b L                   ",
"                  . r 3.i.H.g x y y Z.C.f.y y y n.b.f.y y y y f.b.Z.y y y y y m.m.y y y y Z.C.f.k 4.k.G _ ] L                   ",
"                  . r O.( a.:. .a 6 o.7.e 6 6 a e 7.e 6 6 6 6 e 7.o.6 6 6 6 e o.o.6 6 6 a o.7.e e ! k...G ] L                   ",
"                  . r H d G.*.;.u u n n n n n u n n n n n n n n n n n n n u u n n n n n n n n n u S.a.T Z b L                   ",
"                  . r H d V 9.%.7 7 7 7 7 7 7 7 7 7 7 7 7 7 7 7 7 7 7 7 7 7 7 7 7 7 7 7 7 7 7 7 g.t.T D Z b L                   ",
"                  . r H d V Q j p :.A +.n | :.^ v +.^ s.@.:.+.v +.^ v @.;.} +.^ +.+.0 M :.v v u l U T d Z b L                   ",
"                  . r _ G ) ,.j } x F h K q x i w h i C 0 f h t N s i p z k s t t B ^ g 9 8 8 ! l >.Y G 1.] L                   ",
"                  . r 3.) 1.,.j A  .c s K q 9 w w s w C 0 f B B s F i p z k i t F s v g 9 a 8 ! l >.Y ) i.] L                   ",
"                  . r H D V Q j A  .c N N.q 9 c c m 8 C 0 f B B i s w p z k a m F c v g 9 a 8 ! l U T d Z b L                   ",
"                  . r H d V Q j A 9 i h [ q 9 c B 8 e C 0 f ~ F i B t M z k $.c i 8 v g 9 6 8 K l U T D Z b L                   ",
"                  . r G V -.Q j A 9 8 c N.q x s m 8 8 C 0 f q.h i m F q z k e 8 8 8 ^ g 9 8 8 ! l U d V ..b L                   ",
"                  , ,.D.8.8.>.j d.4.I I M.e.4.N.I I I ^ r.[ [ K I I ! e.^ [ I I I I d.d.4.I I M.{ R 8.8.,.: >                   ",
"                  o , * $ $ $ $ < X X X , + X X X X X X + 4 X X X X X + , X X X X X , < X X X , $ $ $ $ $ + =                   "
};
