/* XPM */
static char *b22831f1ef674b48af952e7e915f6de69IVULJKOAlCdwX7l[] = {
/* columns rows colors chars-per-pixel */
"64 64 224 2 ",
"   c None",
".  c #DA908B",
"X  c #E7503E",
"o  c #EB4F3D",
"O  c #D79185",
"+  c #D4776B",
"@  c #D86C60",
"#  c #D3CECC",
"$  c #DCA09A",
"%  c #D97165",
"&  c #E35445",
"*  c #DE5F55",
"=  c #E35448",
"-  c #DA5E4E",
";  c #DC5C4F",
":  c #DD6353",
">  c #D96051",
",  c #E8523C",
"<  c #DA6351",
"1  c #D86A60",
"2  c #DA685A",
"3  c #D86B60",
"4  c #E2574A",
"5  c #D38981",
"6  c #EC4E3F",
"7  c #DE9B87",
"8  c #DF584A",
"9  c #E35444",
"0  c #D3695B",
"q  c None",
"w  c #DD5F50",
"e  c #E0584B",
"r  c #DE5447",
"t  c #DC6757",
"y  c #E65244",
"u  c #E05543",
"i  c #E25442",
"p  c #E05949",
"a  c #E2543F",
"s  c #E85044",
"d  c #DF6053",
"f  c #E26F5A",
"g  c #CC7E70",
"h  c #CD675A",
"j  c #C56D67",
"k  c #D66C5F",
"l  c #C6745B",
"z  c #F0D8C6",
"x  c #D28580",
"c  c #F8DEC0",
"v  c #E75040",
"b  c #E2574B",
"n  c #CE6053",
"m  c #D85C51",
"M  c #BF6A61",
"N  c #E38256",
"B  c #F8E7D9",
"V  c #DFBBA7",
"C  c #E86C48",
"Z  c #E6A887",
"A  c #F07F53",
"S  c #E16747",
"D  c #F7EFE2",
"F  c #E16F50",
"G  c #F3F1E3",
"H  c #DB926C",
"J  c #D26253",
"K  c #E98258",
"L  c #EAA87B",
"P  c #F4F1E3",
"I  c #F4EEE0",
"U  c #DEAA8C",
"Y  c #EF4D37",
"T  c #F38146",
"R  c #F38149",
"E  c #F18247",
"W  c #F34C3A",
"Q  c #F04E39",
"!  c #F14D3A",
"~  c #ED4F39",
"^  c #F58047",
"/  c #F48045",
"(  c #F28243",
")  c #F04D3C",
"_  c #F18245",
"`  c #F68045",
"'  c #F14D3C",
"]  c #F54B3A",
"[  c #F34B3E",
"{  c #ED4E3C",
"}  c #F27F49",
"|  c #F08149",
" . c #EF8245",
".. c #F37F4C",
"X. c #F28045",
"o. c #F6804A",
"O. c #F24C38",
"+. c #F14E3A",
"@. c #F9DB5E",
"#. c #FADC68",
"$. c #EE8442",
"%. c #F14E38",
"&. c #FBD851",
"*. c #FCD128",
"=. c #FBD233",
"-. c #FAD120",
";. c #F1663F",
":. c #F05E3C",
">. c #F48043",
",. c #FADA57",
"<. c #F7E181",
"1. c #F8DE6D",
"2. c #F7E07B",
"3. c #F7E69D",
"4. c #F34D35",
"5. c #F57C49",
"6. c #F8DF74",
"7. c #F36B42",
"8. c #FAD746",
"9. c #FBD642",
"0. c #F8E390",
"q. c #FBD436",
"w. c #F7E8AF",
"e. c #F7EBBC",
"r. c #F37045",
"t. c #ED5035",
"y. c #F05A3A",
"u. c #F47645",
"i. c #EC5639",
"p. c #FBD74B",
"a. c #FADA64",
"s. c #F5F0DF",
"d. c #FCD43B",
"f. c #F7E497",
"g. c #F87D46",
"h. c #F48249",
"j. c #F37B46",
"k. c #ED4D40",
"l. c #F14C3F",
"z. c #F9E189",
"x. c #F9D22D",
"c. c #F6E7A5",
"v. c #FDD019",
"b. c #F8E9B4",
"n. c #EC8F41",
"m. c #EC5F3B",
"M. c #F5ECC3",
"N. c #EB5A3C",
"B. c #F37E46",
"V. c #E8513C",
"C. c #F3EFD5",
"Z. c #F29B33",
"A. c #FACE0E",
"S. c #F0843C",
"D. c #F66442",
"F. c #F8E5A4",
"G. c #F19439",
"H. c #F18347",
"J. c #F9764B",
"K. c #EB8A4E",
"L. c #F7ECC9",
"P. c #F6E387",
"I. c #FADF77",
"U. c #F8E8B7",
"Y. c #EF5339",
"T. c #ED8447",
"R. c #F6A835",
"E. c #F6E494",
"W. c #EF8C3A",
"Q. c #FABA26",
"!. c #F1613E",
"~. c #FADE81",
"^. c #FBC842",
"/. c #F7493F",
"(. c #E85336",
"). c #F9D638",
"_. c #F6AC42",
"`. c #F7AC27",
"'. c #F3AB4E",
"]. c #F09546",
"[. c #FBD970",
"{. c #EC6D41",
"}. c #F2EFCC",
"|. c #EDA76C",
" X c #ED965E",
".X c #F9EAD1",
"XX c #F8EDD6",
"oX c #F8D73D",
"OX c #F9D84D",
"+X c #FAD053",
"@X c #FCCA26",
"#X c #F9BD35",
"$X c #FCC21C",
"%X c #FDCA18",
"&X c #F4BD5E",
"*X c #EE9F49",
"=X c #FCDD70",
"-X c #F25540",
";X c #FBDE94",
":X c #F6E8A9",
">X c #F4B76B",
",X c #EC944F",
"<X c #F25138",
"1X c #EB9D65",
"2X c #FAE7C1",
"3X c #F17948",
"4X c #EFA475",
"5X c #F77242",
"6X c #F6CE98",
"7X c #F3E58E",
"8X c #EDA353",
"9X c #F7C85B",
"0X c #F7C876",
"qX c #F1AE5B",
"wX c #FCC834",
"eX c #F6B535",
"rX c #F7DAB0",
"tX c #F4C8A6",
"yX c #F8DE9A",
"uX c #F8D16A",
"iX c #FCD376",
"pX c #EFB07A",
"aX c #FBCC6D",
"sX c #F7C78A",
/* pixels */
"                                                                                                                                ",
"                                  5 x g + $                                                                                     ",
"                                  7 x h n J w @ .                                                                               ",
"                                  # # O @ ; i a = ; @ O                                                                         ",
"                                      0 M $ 3 e { { y r d +                                                                     ",
"                                      . l O   5 = l.%.Y o = > +                                                                 ",
"                                          # 5 7 p k.+.4.Q { o 9 : $                                                             ",
"                                          # k = X l.! Q ~ Q W Y X 8 1                                                           ",
"                                            @ y ) ~ Y.Y ! ) V.k.) { u 2 #                                                       ",
"                                            . e ~ Y.D.D.i.! W ) [ [ Y v > $                                                     ",
"                                              - { 4.:...3X;.4.] l.) Y ) X < $                                                   ",
"                                            # * -Xy.{. . .^ r.Y.4.Q ) Y Q X * $                                                 ",
"                                              f N.J.} >.` R ..3Xm.t.W ' Y Y X > #                                               ",
"                                              d q r.R T ^ | T R } !.~ ) ! O.' a t                                               ",
"                                              w ~ D...T X.E E T >.g.m.~ ! ! l.) & 0                                             ",
"                                    # O     # m ~ :...E X.E |  ._ ^ J.:.Y ! ~ Q l.4 O                                           ",
"                            #       5 5     % & Y :...T X.E R R  . .o.J.N.Q %.~ [ X :                                           ",
"                          O l .   O j +     w 6 Q :...R T E ^ ^ _  . .o.r.~ W { ) ~ = +                                         ",
"                          O - 1   @ h $   3 & { Y :...R T  .( >.X.E _  .} ;.O.k.{ ~ q w                                         ",
"                          # @ +   ; p # % e k.Q Y !...E T E $.S.E R / >.T j.y.{ l.4.~ = +                                       ",
"                                . e i ; 9 k.[ ] Y ;.o.} T _ Z.Z. .T ^ o.X._ r.Y.] 4.~ , t                                       ",
"                                3 y k.) Q Q ) ] ~ u.o..._ ( `.Q.W.$.X.o.E | o.!.4.Q ~ ) 8 #                                     ",
"                                : 6 ! ! Q +.{ Q N.5.^ R E S.Q.%X`.$.T _ E R R J.Y.O.' W & %                                     ",
"                                * { O.Q ! ' l.~ 7.R R | R W.Q.A.$XG.X.$.} / E o.!.4.] W o :                                     ",
"                          O O   ; ~ Q Q W W ! y.j.E | | R G.$XA.A.`.S.( ^ >._ R r.<X] ' Y 8 #                                   ",
"                          @ %   - ~ ~ Q W W t.r.T  .| H.X.Z.%XA.A.$XG.( ^ ( X.E 5.y.O.) Q u +                                   ",
"                        O M +   - ) Q ) ! t.;.5. .X.|  .X.R.%XA.A.-.R.( _  .T T R ;.Y ' ' X @                                   ",
"                      # 0 n +   - ) Y.N.i.;.5.|  .X.E  .S.`.v.v.v.-.Q.W.T E T T ^ u.t.W W 6 *                                   ",
"                        w & 5   ; { N.J.5./ R | R ` ^ } W.Q.v.v.v.-.@XZ.X.T T R ^ j.i.W W k.8                                   ",
"                      $ b o 2   ; V.i.J.T  .} ....( o.| Z.@Xv.-.v.-.*.R.$.E } R h.} :.Q Q ) r O                                 ",
"                      % i { -   m V.~ 5XH.| B.^ T.$.T S.eX*.-.-.-.-.-.#XW.| | | h.R !.Y Q Q & %                                 ",
"                      t , Y v * & k.l.7.E ..T S./ R _ Z.wXx.x.*.*.-.-.wXG.E | E _ E ;.Y Q ! a 3                                 ",
"                      < V.Q [ 6 { l.l.;.h...].G.( E n.#X*.-.x.*.*.*.x.x.G.X._ H.X.R D.Y Q ! , 2                                 ",
"                    $ b ) ! ] W Y ! l.m.X.B.G.^.eXR.#Xx.x.x.x.*.=.=.x.x.R.>.X.X.( R D.{ ) W o :                                 ",
"                    7 u ! ] W %.Q Q [ :.B.( G.wX=.q.q.x.=.=.=.=.=.=.=.=._.$.X.T  .R ;.Q Q O.o d                                 ",
"                    0 i ! W ) ! ) Q [ y.B. .n.^.q.q.q.q.q.q.q.q.d.q.).d._.$.E T  .R ;.! ~ %.o :                                 ",
"                    2 X ! ) ~ +.l.! [ y.j._ n.^.d.d.d.d.d.d.d.d.d.).).oX_.$.E X.E o.!.! ~ Y , 2                                 ",
"                    f , Y -Xi.Y [ W W y.5./ n.^.9.9.9.9.9.9.9.9.9.oXoX9._.$.E T R 5.m.! +.O.a 3   # 7 #                         ",
"                    k q ~ D.7.t.Y Q Y :.g.^ n.^.8.8.8.8.8.8.8.8.p.8.8.p.'.$._ R R u.i.! W ! u +   2 j                           ",
"                    k q ~ ;.g.5XN.(.(.7.T _ ].+Xp.p.p.p.p.p.p.OX&.OXOX&.*X .H.R o.r.(.! W { 4 # 1 u <                           ",
"                    * 6 ~ ;.T T 3X7.7.5. . .*X&.&.&.&.&.&.&.&.&.,.&.&.+X].>.H.| o.7.t.' ! 6 >   * q p $                         ",
"                  # > o l.!.X.T.|  .T R }  .'.,.,.,.,.,.,.,.,.,.@.,.,.9Xn.>.T | } m.Q l.) & %   4 { a @                         ",
"                    t , ) :.` H.} } g.^ T.n.9X@.@.@.@.@.@.@.@.@.@.@.@.&X$.X.} R J.i.{ ' { ;     * 6 V.<                         ",
"                  # @ X { y.g.T R B.g.X.n.qXa.@.a.a.a.a.a.a.a.a.#.#.#.'. .| B.5.7.~ ~ W & 5     % e k.4 #                       ",
"                    1 s ~ i.u._ K.8X*X8X&X[.#.#.#.#.#.#.#.#.#.#.#.1.uX].R | >.g.m.Y Y o w         t X 4 #                       ",
"                    . e Q Y.u.H.,XaX[.[.[.1.1.1.1.1.1.1.1.1.1.1.=X=X&X$.T R ` u.(.O.~ 9 +         O r <                         ",
"                      - ~ l.{.R T.aXI.6.=X6.6.I.6.6.6.6.6.6.6.6.6.I.8X$.R E >.7.V.O.X 2             j 3                         ",
"                      : o l.m.o.E >X~.2.I.I.2.2.2.2.2.2.2.2.2.2.2.iX,X ./  .j.y.l.Y 9 .           # . $                         ",
"                      % u O.i.5.X.qX~.<.<.<.~.<.<.<.<.<.<.<.<.<.~.0XK.T >.T.u.t./.~ <               #                           ",
"                        ; Y (.r.E ,X~.P.P.z.z.P.z.z.z.z.z.z.z.P.z.>XT.R h. .7.t.{ q >                                           ",
"                        3 a t.D.h.K.0X7X7X0.0.0.0.0.0.0.0.0.0.E.;X|. .^ } 5.!.t.{ k.*         $ g .                             ",
"                        $ 8 ! -X5.| >XE.E.f.f.f.E.E.f.f.f.f.f.f.;X1XX.>.E 5.y.%.W ] = 1 . + @ 8 h O                             ",
"                          1 s { r.}  X;X3.3.3.3.3.3.3.3.3.3.3.3.yX XX.( E u.V.{ 4.Y k.s = s y i @                               ",
"                            > , N.B.K.sXF.c.F.F.c.c.c.c.c.c.F.c.F.1X ._ R u.V.l.W Y ' W Y ] 6 *                                 ",
"                            O 4 6 {.| |.F.:Xw.:X:Xw.w.w.w.w.w.w.F.|.| ( T 5X%./.{ Y ! ~ Y { p .                                 ",
"                              % r N.j.K.6Xb.b.w.w.b.U.b.b.b.U.U.w.pX..T _ 3X~ /.~ t.! k.{ 9 %                                   ",
"                                % r !.3X4XU.e.e.U.e.U.U.U.e.U.e.M.6XK...| ..m.Y Q Y ' k.= 0                                     ",
"                                  % p {.K.6X2X2XM.M.M.e.e.M.M.M.M.U.|.X.>.h.r.:.i.<X) 9 0                                       ",
"                                    + - C  XrXL.}.}.}.L.L.L.}.L.L.L.rX1XT.>.^ 5.u., 4 %                                         ",
"                                      $ : F 4X2X.XC.C.C..XXXC..XC.C.XXc 4XE X.3XS > O                                           ",
"                                          1 - Z c XXs.s.s.s.C.XXs.s..XtX XA N < %                                               ",
"                                          # $ g V B D P s.s.s.s..XtXL N K f %                                                   ",
"                                                  $ 7 G I z z z U H l 7 #   #                                                   ",
"                                                          O 7 7 $                                                               "
};
