/* XPM */
static char *key21727852690[] = {
/* columns rows colors chars-per-pixel */
"38 64 256 2 ",
"   c #EEEEEE",
".  c #D8A488",
"X  c #CF9578",
"o  c #845342",
"O  c #E2B197",
"+  c #433434",
"@  c #2A1C1D",
"#  c white",
"$  c #EFCBB6",
"%  c #EAC0A7",
"&  c #C0876B",
"*  c #EBDACF",
"=  c #612D26",
"-  c #B4745A",
";  c #9F614B",
":  c #733F32",
">  c #511C18",
",  c #5D4E4E",
"<  c #D1C3BC",
"1  c #756866",
"2  c #F6F6F6",
"3  c #BCACA3",
"4  c #9E928F",
"5  c #8B7F7D",
"6  c black",
"7  c black",
"8  c black",
"9  c black",
"0  c black",
"q  c black",
"w  c black",
"e  c black",
"r  c black",
"t  c black",
"y  c black",
"u  c black",
"i  c black",
"p  c black",
"a  c black",
"s  c black",
"d  c black",
"f  c black",
"g  c black",
"h  c black",
"j  c black",
"k  c black",
"l  c black",
"z  c black",
"x  c black",
"c  c black",
"v  c black",
"b  c black",
"n  c black",
"m  c black",
"M  c black",
"N  c black",
"B  c black",
"V  c black",
"C  c black",
"Z  c black",
"A  c black",
"S  c black",
"D  c black",
"F  c black",
"G  c black",
"H  c black",
"J  c black",
"K  c black",
"L  c black",
"P  c black",
"I  c black",
"U  c black",
"Y  c black",
"T  c black",
"R  c black",
"E  c black",
"W  c black",
"Q  c black",
"!  c black",
"~  c black",
"^  c black",
"/  c black",
"(  c black",
")  c black",
"_  c black",
"`  c black",
"'  c black",
"]  c black",
"[  c black",
"{  c black",
"}  c black",
"|  c black",
" . c black",
".. c black",
"X. c black",
"o. c black",
"O. c black",
"+. c black",
"@. c black",
"#. c black",
"$. c black",
"%. c black",
"&. c black",
"*. c black",
"=. c black",
"-. c black",
";. c black",
":. c black",
">. c black",
",. c black",
"<. c black",
"1. c black",
"2. c black",
"3. c black",
"4. c black",
"5. c black",
"6. c black",
"7. c black",
"8. c black",
"9. c black",
"0. c black",
"q. c black",
"w. c black",
"e. c black",
"r. c black",
"t. c black",
"y. c black",
"u. c black",
"i. c black",
"p. c black",
"a. c black",
"s. c black",
"d. c black",
"f. c black",
"g. c black",
"h. c black",
"j. c black",
"k. c black",
"l. c black",
"z. c black",
"x. c black",
"c. c black",
"v. c black",
"b. c black",
"n. c black",
"m. c black",
"M. c black",
"N. c black",
"B. c black",
"V. c black",
"C. c black",
"Z. c black",
"A. c black",
"S. c black",
"D. c black",
"F. c black",
"G. c black",
"H. c black",
"J. c black",
"K. c black",
"L. c black",
"P. c black",
"I. c black",
"U. c black",
"Y. c black",
"T. c black",
"R. c black",
"E. c black",
"W. c black",
"Q. c black",
"!. c black",
"~. c black",
"^. c black",
"/. c black",
"(. c black",
"). c black",
"_. c black",
"`. c black",
"'. c black",
"]. c black",
"[. c black",
"{. c black",
"}. c black",
"|. c black",
" X c black",
".X c black",
"XX c black",
"oX c black",
"OX c black",
"+X c black",
"@X c black",
"#X c black",
"$X c black",
"%X c black",
"&X c black",
"*X c black",
"=X c black",
"-X c black",
";X c black",
":X c black",
">X c black",
",X c black",
"<X c black",
"1X c black",
"2X c black",
"3X c black",
"4X c black",
"5X c black",
"6X c black",
"7X c black",
"8X c black",
"9X c black",
"0X c black",
"qX c black",
"wX c black",
"eX c black",
"rX c black",
"tX c black",
"yX c black",
"uX c black",
"iX c black",
"pX c black",
"aX c black",
"sX c black",
"dX c black",
"fX c black",
"gX c black",
"hX c black",
"jX c black",
"kX c black",
"lX c black",
"zX c black",
"xX c black",
"cX c black",
"vX c black",
"bX c black",
"nX c black",
"mX c black",
"MX c black",
"NX c black",
"BX c black",
"VX c black",
"CX c black",
"ZX c black",
"AX c black",
"SX c black",
"DX c black",
"FX c black",
"GX c black",
"HX c black",
"JX c black",
"KX c black",
"LX c black",
"PX c black",
"IX c black",
"UX c black",
/* pixels */
"#     2 # # 2     # # 2     # # #     2 # #       # # 2     # # 2     2 # # ",
"#     2 # # 2     # # 2     # # #     2 # #       # # 2     # # 2     2 # # ",
"2 2 2 2 2 2 2 2 2 2 2 2 2 2 2 2 2 2 2 2 2 2 2 2 2 2 2 2 2 2 2 2 2 2 2 2 2 2 ",
"  # # 2     2 # #     2 # #       # # 2     # # #     2 # #     2 # # 2     ",
"  # # 2     2 # #     2 # #       # # 2     # # #     2 # #     2 # # 2     ",
"2 2 2 2 2 2 2 2 2 2 2 2 2 2 2 2 2 2 2 2 2 2 2 2 2 2 2 2 2 2 2 2 2 2 2 2 2 2 ",
"#     2 # # 2     # # 2     # # #     2 # #       # # 2     # # 2     2 # # ",
"#     2 # # 2     # # 2     # # #     2 # #       # # 2     # # 2     2 # # ",
"  # # 2     2 # #     2 # #       # # 2     # # #     2 # #     2 # # 2     ",
"  # # 2     2 # #     2 # #       # # 2     # # #     2 # #     2 # # 2     ",
"2 2 2 2 2 2 2 2 2 2 2 2 2 2 2 2 2 2 2 2 2 2 2 2 2 2 2 2 2 2 2 2 2 2 2 2 2 2 ",
"#     2 # # 2     # # 2     # # #     2 # #       # # 2     # # 2     2 # # ",
"#     2 # # 2     # # 2     # # #     2 # #       # # 2     # # 2     2 # # ",
"2 2 2 2 2 2 2 2 2 2 2 2 2 2 2 2 2 2 2 2 2 2 2 2 2 2 2 2 2 2 2 2 2 2 2 2 2 2 ",
"  # # 2     2 # #     2 # #       # # 2     # # #     2 # #     2 # # 2     ",
"  # # 2     2 # #     2 # #       # # 2     # # #     2 # #     2 # # 2     ",
"#     2 # # 2     # # 2     # # #     2 # #       # # 2     # # 2     2 # # ",
"#     2 # # 2     # # 2     # # #     2 # #       # # 2     # # 2     2 # # ",
"2 2 2 2 2 2 2 2 2 2 2 2 2 2 2 2 2 2 2 2 2 2 2 2 2 2 2 2 2 2 2 2 2 2 2 2 2 2 ",
"  # # 2     2 # #     2 # #       # # 2     # # #     2 # #     2 # # 2     ",
"  # # 2     2 # #     2 # #       # # 2     # # #     2 # #     2 # # 2     ",
"2 2 2 2 2 2 2 2 2 2 2 2 2 2 2 2 2 2 2 3 * 2 2 2 2 2 2 2 2 2 2 2 2 2 2 2 2 2 ",
"#     2 # # 2     # # 2     # # #     , < #       # # 2     # # 2     2 # # ",
"#     2 # # 2     # # 2     # # #   * + < #       # # 2     # # 2     2 # # ",
"  # # 2     2 # #     2 # # < 5 5 5 1 + 3   # # #     2 # #     2 # # 2     ",
"  # # 2     2 # #     2 # # < 5 1 < 4 , 3   # # #     2 # #     2 # # 2     ",
"2 2 2 2 2 2 2 2 2 2 2 2 2 2 < < 3 * * + 3 2 2 2 2 2 2 2 2 2 2 2 2 2 2 2 2 2 ",
"#     2 # # 2     # # 2     3 + 1 3 , , < #       # # 2     # # 2     2 # # ",
"#     2 # # 2     # # 2       < < < 3 , < #       # # 2     # # 2     2 # # ",
"2 2 2 2 2 2 2 2 2 2 2 2 2 2 2 2 2 2 < , 3 2 2 2 2 2 2 2 2 2 2 2 2 2 2 2 2 2 ",
"  # # 2     2 # #     2 # #       # < , 3   # # #     2 # #     2 # # 2     ",
"  # # 2     2 # #     2 # #       # * 1 3   # # #     2 # #     2 # # 2     ",
"#     2 # # 2     # # 2     # # #   < 1 < #       # # 2     # # 2     2 # # ",
"#     2 # # 2     # # 2     # # #   < 1 < #       # # 2     # # 2     2 # # ",
"2 2 2 2 2 2 2 2 2 2 2 2 2 2 2 2 2 2 * 1 < 2 2 2 2 2 2 2 2 2 2 2 2 2 2 2 2 2 ",
"  # # 2     2 # #     2 # #       # * 1 <   # # #     2 # #     2 # # 2     ",
"  # # 2     2 # #     2 # #       # * 5 <   # # #     2 # #     2 # # 2     ",
"2 2 2 2 2 2 2 2 2 2 2 2 2 2 2 2 2 2 * 5 < 2 2 2 2 2 2 2 2 2 2 2 2 2 2 2 2 2 ",
"#     2 # # 2     # # 2     # # #   * 5 < #       # # 2     # # 2     2 # # ",
"#     2 # # 2     # # 2     # # #   * 5 < #       # # 2     # # 2     2 # # ",
"  # # 2     2 # #     2 # #       #   5 <   # # #     2 # #     2 # # 2     ",
"  # # 2     2 # #     2 # #       #   1 <   # # #     2 # #     2 # # 2     ",
"2 2 2 2 2 2 2 2 2 2 2 2 2 2 2 2 2 2 * , 3 2 2 2 2 2 2 2 2 2 2 2 2 2 2 2 2 2 ",
"#     2 # # 2     # # 2     # # #   * , < #       # # 2     # # 2     2 # # ",
"#     2 # # 2     # # 2     # # #   * 5 * #       # # 2     # # 2     2 # # ",
"2 2 2 2 2 2 2 2 2 2 2 2 2 2 2 2 2 2   5 < 2 2 2 2 2 2 2 2 2 2 2 2 2 2 2 2 2 ",
"  # # 2     2 # #     2 # #       #   1 <   # # #     2 # #     2 # # 2     ",
"  # # 2     2 # #     2 # # 2   * 4 , 3 * 4 * # #     2 # #     2 # # 2     ",
"#     2 # # 2     # # 2 * < O 4 1 + ; $ * 3 1 *   # # 2     # # 2     2 # # ",
"#     2 # # 2     2 * < X O % 5 , , & * * * 4 <   # # 2     # # 2     2 # # ",
"2 2 2 2 2 2 2 2 < < . % % % % - + - . * * $ 5 * 2 2 2 2 2 2 2 2 2 2 2 2 2 2 ",
"  # # 2     2 # * - . . . . & : : - . * % $ 5 2 #     2 # #     2 # # 2     ",
"  # # 2     2   3 - & X & o = = o & . % $ % . 2 #     2 # #     2 # # 2     ",
"2 2 2 2 2 2 * O . % % X o = > = o & . % $ % % * 2 2 2 2 2 2 2 2 2 2 2 2 2 2 ",
"#     2 #   . . % O . o = = = : ; X . O % % $ *   # # 2     # # 2     2 # # ",
"#     2 # 2 & & . X o > = : = : ; X O % % % $ $   # # 2     # # 2     2 # # ",
"  # # 2   < . X . - : : : = = o & O % % O % $ $ 2     2 # #     2 # # 2     ",
"  # # 2     3 X & : : o : > = - X O % % X % $ $       2 # #     2 # # 2     ",
"2 2 2 2 2 2 2 * o : < 3 1 = o & . % $ . X % $ % * 2 2 2 2 2 2 2 2 2 2 2 2 2 ",
"#     2 # # 2     2 # 2 < : - . O % % & X O $ $ $ # # 2     # # 2     2 # # ",
"#     2 # # 2     # # 2 * ; X . O $ % - & O $ $ $ * # 2     # # 2     2 # # ",
"2 2 2 2 2 2 2 2 2 2 2 2 3 - . O % $ . ; X O $ $ $ * 2 2 2 2 2 2 2 2 2 2 2 2 ",
"  # # 2     2 # #     < o & . O % $ . . & O $ $ $ $   2 # #     2 # # 2     ",
"  # # 2     2 # #   * o ; X O % % % . O % % $ $ $ *   2 # #     2 # # 2     "
};
