/* XPM */
static char *_5e7d1d647304fe8c73e3714871493f3iYBQuJFGBYQ0RE7t[] = {
/* columns rows colors chars-per-pixel */
"64 64 256 2 ",
"   c #47704C",
".  c gray8",
"X  c #3E241D",
"o  c #130A0A",
"O  c #6E2E10",
"+  c None",
"@  c #0F1010",
"#  c #040606",
"$  c #BF623A",
"%  c #B75E35",
"&  c #112A2B",
"*  c #371D11",
"=  c #231009",
"-  c #245E5D",
";  c #284E4F",
":  c #442818",
">  c #234646",
",  c #060606",
"<  c #74391D",
"1  c #347575",
"2  c #398585",
"3  c #242620",
"4  c #6D3117",
"5  c #7A3B1C",
"6  c #316362",
"7  c #9B5737",
"8  c #3D8788",
"9  c #1B2F30",
"0  c #833814",
"q  c #0F1B1C",
"w  c #1F4546",
"e  c #7A3717",
"r  c #9E512D",
"t  c #A75129",
"y  c #8A401E",
"u  c #4CD1D0",
"i  c #1D4040",
"p  c #A7542D",
"a  c #753314",
"s  c #7B3411",
"d  c #0F0E10",
"f  c #0F1D1D",
"g  c #7E3412",
"h  c #B06A3E",
"j  c #4AA3A3",
"k  c #9A4F2A",
"l  c #25140F",
"z  c #28551D",
"x  c #292E31",
"c  c #282E31",
"v  c #B55527",
"b  c #432A1D",
"n  c #FE8748",
"m  c #FF8547",
"M  c #272F30",
"N  c #14181A",
"B  c #272B2E",
"V  c #B35326",
"C  c #CF6734",
"Z  c #E77945",
"A  c #6E959E",
"S  c #1C4A4A",
"D  c #64B2B7",
"F  c #99431B",
"G  c #96411A",
"H  c #5C7A82",
"J  c #EB7B46",
"K  c #F7B26A",
"L  c #AF542A",
"P  c #46C1C0",
"I  c #8F411D",
"U  c #D66E3E",
"Y  c #2D3335",
"T  c #272C2E",
"R  c #E27946",
"E  c #292E32",
"W  c #9D441B",
"Q  c #141D1F",
"!  c #9F4F28",
"~  c #934017",
"^  c #C46A3F",
"/  c #6A99A0",
"(  c #CA8051",
")  c #5BD4D7",
"_  c #D26835",
"`  c #E37742",
"'  c #575A5A",
"]  c #191C1E",
"[  c #83350F",
"{  c #344348",
"}  c #45C3C1",
"|  c #742B04",
" . c #B05225",
".. c #4A1A04",
"X. c #DE7948",
"o. c #D97548",
"O. c #7B2E08",
"+. c #47BFBF",
"@. c #6A9CA5",
"#. c #A27061",
"$. c #AF5831",
"%. c #A67565",
"&. c #B27660",
"*. c #B36942",
"=. c #59D9DA",
"-. c #5BD0D3",
";. c #5DCDCF",
":. c #5FBDC2",
">. c #65ACB3",
",. c #61B7BC",
"<. c #55E5E5",
"1. c #B57C68",
"2. c #67A1A7",
"3. c #F0AE6A",
"4. c #808282",
"5. c #8C3A12",
"6. c #6A969E",
"7. c #BD5D35",
"8. c #7E330D",
"9. c #5FC8CC",
"0. c #FAB369",
"q. c #A4522A",
"w. c #59D0D2",
"e. c #9C6E62",
"r. c #C05C2C",
"t. c #BE7F68",
"y. c #66A6AE",
"u. c #2F3436",
"i. c #491A05",
"p. c #C56132",
"a. c #59DDDF",
"s. c #DC733E",
"d. c #787C7B",
"f. c #D16D3D",
"g. c #5AE0E2",
"h. c #B7572A",
"j. c #AE5D3A",
"k. c #8B685E",
"l. c #C86534",
"z. c #5FC3C7",
"x. c #595C5C",
"c. c #C07B5E",
"v. c #57868B",
"b. c #B17152",
"n. c #306162",
"m. c #868989",
"M. c #1C2022",
"N. c #6B716E",
"B. c #527074",
"V. c #D38364",
"C. c #5E7D79",
"Z. c #F9854B",
"A. c #936A60",
"S. c #B8856F",
"D. c #6E97A0",
"F. c #3D494D",
"G. c #CE754C",
"H. c #C0734F",
"J. c #6F9298",
"K. c #D07145",
"L. c #A34D21",
"P. c #9EA09F",
"I. c #728484",
"U. c #574339",
"Y. c #D09E79",
"T. c #F48046",
"R. c #6DBEC0",
"E. c #59B7BA",
"W. c #A56C57",
"Q. c #6F6A5F",
"!. c #926456",
"~. c #FB8F4F",
"^. c #E7A665",
"/. c #AA542B",
"(. c #725E4D",
"). c #7D4F35",
"_. c #325054",
"`. c #4EB6B7",
"'. c #4FAAAD",
"]. c #425D61",
"[. c #767573",
"{. c #A55934",
"}. c #C8704A",
"|. c #A45D3E",
" X c #665F53",
".X c #843A15",
"XX c #79563F",
"oX c #CC6A3D",
"OX c #753E20",
"+X c #559397",
"@X c #1F2325",
"#X c #51A2A6",
"$X c #50B1B3",
"%X c #6FB4B5",
"&X c #668B93",
"*X c #CD9179",
"=X c #D3AF9A",
"-X c #452F24",
";X c #405558",
":X c #778C91",
">X c #B69585",
",X c #55C3C6",
"<X c #83645D",
"1X c #562A15",
"2X c #A28172",
"3X c #C57D4E",
"4X c #D78551",
"5X c #974925",
"6X c #8B5F4B",
"7X c #786D64",
"8X c #974C2A",
"9X c #9A4821",
"0X c #827057",
"qX c #BE7E53",
"wX c #4FC8C9",
"eX c #4F5355",
"rX c #919392",
"tX c #4E9FA2",
"yX c #46B2B3",
"uX c #426C6F",
"iX c #3B6467",
"pX c #2F3B3E",
"aX c #4C2B19",
"sX c #23504E",
"dX c #7097A0",
"fX c #70ADB0",
"gX c #D28350",
"hX c #6F5D5A",
"jX c #62361F",
"kX c #437C7D",
"lX c #5CADAE",
"zX c #DE9052",
"xX c #F49B57",
"cX c #664329",
"vX c #4E1F09",
"bX c #471A04",
"nX c #ADB0AF",
"mX c #5D6160",
"MX c #86817D",
"NX c #48B0B0",
"BX c #1E2C2F",
"VX c #312D2B",
"CX c #3A2115",
"ZX c #2C3539",
"AX c #D0AB8A",
"SX c #D99557",
"DX c #6A544D",
"FX c #471802",
"GX c #56504A",
"HX c #57A99E",
"JX c #541D03",
"KX c #3A9292",
"LX c #FFC300",
"PX c #860007",
"IX c #000801",
"UX c #47704C",
/* pixels */
"                                                  o o 9 & & & & & l a 0 s s 0 O                                                 ",
"                                              o @ i w 2 u wXwXwXHX).s.zX*.L.oXy <                                               ",
"                                          = @ i - ,Xw.=.-.>.2.I.6XR xX^.q.V X.I 0 <                                             ",
"                                      = . > - u ;.2.@.@.;.z.d.7 ` ~.0.J !  .Z F p.p <                                           ",
"                                    = ; n.'.) ) :./ dXH kXkXcX_ n xXzXZ !  .Z F C ^ a .                                         ",
"                                  = ; +.a.y.6.@.z.lX;XpXN N 1X_ ~.^.L.R !  .Z F C ^ OX6 .                                       ",
"                                o ; tX9.9.y.A &X].n.] M.E -X8XJ ~.^.L.Z /.V Z F C ^ OXC.1 .                                     ",
"                              o ; #X>.6.>.z.iXZXM.M.c E x 1XC m ~.^.L.J L V Z F C ^ O.cXlX1 .                                   ",
"                            * > '.D 6.A J.iXBXM.T E x x x 1XC n 3.3XW J L V Z F C f.8.OXJ.E.1 .                                 ",
"                            : w a.9.@.J.;X@XB E x x x x b q.T.n K *.F J L V X.I C U ~ % Q.g.KX#                                 ",
"                          * 3 $X>.:.,.;X@XB E x x x x c aXr.m n K *.F J L V o.I C U F _ XXy.:.1 .                               ",
"                          : w ,X@.@.uXM.T x x x x x x c aXr.m n K *.F J L V o.I C U F C ).J.:.8 9 X                             ",
"                        X 3 `.y.6.&XF.] E x x x x x c VXjXC m ~.^.*.F J L V X.I _ U G _ ).I.6.z.6 @                             ",
"                        @ 6 ,X:.D B.] M x x x x x x c b L m n K ( $ W Z /.V Z F _ U G ` /.(.D ;.8 9 *                           ",
"                        f NXD ;.E.F.M.c x x x x x x M b v m n K ( $ W R ! V Z F C U G ` $. X) ,.;.- @                           ",
"                        q yX>.D.B.N x x x x x x x c M b v m n K ( $ W R !  .Z F _ U G Z 7.jXB.6.;.- @                           ",
"                        q yX>.dXB.N c x x x x x x c M b v m n K ( % W R !  .X.G _ U G Z 7...{ A ;.- @                           ",
"                        2 E.2.&XpX@Xx x x x x x x c M b v Z.p.{.5XI ~ R ! V o.I C oX~ ` % i.{ / D j >                           ",
"                        } <.=.$XQ B x x x x x x x c M b h.l.h.C C r.5.W [  .K.I C ^ ~ ` $.i.n.=.=.<.S                           ",
"                        P 9.D +XQ B x x x x x x x c M b h. .l.X.K.G.f.U V 5.G 8.p.$ ~ ` $.i._.D D =.S                           ",
"                        P D A H N T x x x x x x x c M b v h.p.^ *.S.}.}.G.s.U L.~ 5.5.U q.i.{ A / w.S                           ",
"                        +.D A H N T x x x x x x x c M b V T.h.[ 8.|.j.b.S.}.H.G.s.U W F 5.vXF.A 6.w.S                           ",
"                        P z.D +XQ T x x x x x x x c M b v m T./..XO.| .X|.{.&.c.^ H.o.` l.[  XD D =.S                           ",
"                        } g.=.$XQ B x x x x x x x c M b v m n 3.H.~ 8.5.| | + {.{.1.H.H.c.h.N.) =.<.S                           ",
"                        P D / H N T x x x x x x x c M b v m n K ( $ W f..X5.5.| | 5X! |.1.q.(./ @.w.S                           ",
"                        +.D A H N T x x x x x x x c M b v m n K gX% W R ! v $ 8.F 8.| O.8XOXGXA / w.S                           ",
"                        +.D D.H N T x x x x x x x c M b v m n 0.4Xj.W R ! V o.I C L [ L.O.FX{ D./ w.S                           ",
"                        } g.) '.Q T x x x x x x x c M b v m n K 4Xj.F R ! V o.I C ^ G s.9X..n.) ) <.S                           ",
"                        P ;.,.+XQ T x x x x x x x c M b v m n K qX).I R ! v R G C ^ ~ ` $.i._.,.,.=.S                           ",
"                        +.D A H N T x x x x x x x c M b v m n 3.0X[.XXX.! v Z F C ^ ~ ` $.i.{ A 6.w.S                           ",
"                        +.D A H N T x x x x x x x c M b v m n 3.Q.m.(.X.! V Z F C ^ ~ Z 7.i.{ A / w.S                           ",
"                        P z.>.v.N T x x x x x x x c M b v m n 3.0Xd.XXX.q.V Z F C oX~ Z 7..._.>.>.) S                           ",
"                        } <.g.`.Q B x x x x x x x c M b v m n K b.U.+ J L V Z F C U G Z 7...n.a.a.<.S                           ",
"                        +.,.@.v.N T x x x x x x x c M b v m n 0.qXU.+ J L V R G _ U F Z 7...{ @.2.w.S                           ",
"                        +.D A H N T x x x x x x x c M b v m n 0.( U.+ J L V o.I _ U G Z % ..{ A / w.S                           ",
"                        +.D A H N T x x x x x x x c M b v m n 0.( U.+ J L V o.I C f.G ` $.i.{ A / w.S                           ",
"                        P a.-.'.Q T x x x x x x x c M b v m n 0.qXU.+ J L V R G C ^ ~ ` % ..n.;.w.g.S                           ",
"                        P -.z.tXQ T x x x x x x x c M b v m n K b.U.+ J L V Z F C ^ ~ Z 7..._.z.z.a.S                           ",
"                        +.D A H N T x x x x x x x c M b v m n 3.0X[.XXZ L V Z F C ^ ~ Z 7...{ A 6.w.S                           ",
"                        P D A H N T x x x x x x x c M b v m n 3.Q.m.(.X.q.V Z F _ f.G Z 7...{ A / w.S                           ",
"                        P :.y.v.N T E u.u.u.u.u.u.u.Y -X$.Z.Z.3.7X4.(.X.r $.X.5XoXK.9XR % vXF.@.2.-.sX                          ",
"                        } <.g.`.Q B Y eX' ' ' x.' ' '  XW.V.V.Y.2X7Xk.c.!.W.c.!.&.&.!.c.#.DXC.R.R.R.B.                          ",
"                        P ,.2.v.N T Y ' d.m.rXP.m.4.d.[.2X*XY.AX>X%.A.t.A.#.1.k.&.%.k.t.e.hXN.J.J.%XC.                          ",
"                        +.D A H N T Y ' P.nXP.P.P.rX4.MX>X=X=X=X>X%.A.t.e.#.1.k.&.%.k.t.A.hXN.:X:X%XC.                          ",
"                        +.D A H N T Y ' 4.d.N.N.d.[.N.Q.%.*X*XY.S.%.A.t.e.#.1.k.&.e.<X#.e.k.7XI.:X%XC.                          ",
"                        } ) 9.#XQ B Y ' d.4.m.m.4.4.4.Q.#.V.V.Y.S.e.A.t.e.#.%.<Xe.#.#.%.1.%.<XI.fXR.C.                          ",
"                        } ) 9.#XQ B Y eXx.x.x.mXx.' x. XW.V.V.Y.t.#.!.c.6X6XW.&.&.&.1.1.2X%.!.I.fXR.B.                          ",
"                        P D A H N T x Y Y Y Y Y Y Y Y -X$.Z.Z.3.3XI .X/.l.l.}.G.G.S.b.b.W.+ XXI.6.;.sX                          ",
"                        +.D A H N T x x x x x x x c M b v Z.r.! 9Xp.C oXK.K.t.&.*.b.I .X[ JXF.D./ -.S                           ",
"                        P :.2.v.N T x x x x x x x x M b v p.r.U f.G.K.c.1.*.b.8X[ [ | O.| bX{ 2.2.) S                           ",
"                        } <.g.`.Q T x x x x x x x x M b h. .l.X.H.S.*.*.7 8.8.| O.O.[ f.q.i.n.a.a.<.S                           ",
"                        +.:.y.v.N T x x x x x x x c M b v r.r.$ j.|.8.O.| O.[ O.p.$ ~ Z 7..._.y.y.) S                           ",
"                        +.D A H N T x x x x x x x x M b v T.r.[ | | O.5.8. .s.G _ U F ` % i.{ A / -.S                           ",
"                        P D D.H N T E E E E E E E E c b v m T.% I [ ~ R q.V Z F _ U F ` $.i.{ dX@.) S                           ",
"                        2 uX].F.N ] ] ] ] ] ] ] ] ] ] CXv m n K 4X% F J L V R G _ U F ` $.i.B ].].8 >                           ",
"                        d , # # # # # # # # # # # # # 3 v m n K gX$ W J L V o.I C oXG s.k 4 , , , # o                           ",
"                                                      O v m n K ( $ W J L V o.I C ^ .Xt <                                       ",
"                                                      O v m n K ( $ W J L V o.I l.p 5 :                                         ",
"                                                      O h.m n K ( $ W Z q.V o.+ y O                                             ",
"                                                      O h.m n K ( j.W R !  .% 5 = X                                             ",
"                                                      O h.m n K 3Xj.W ` r g 5 X                                                 ",
"                                                      O h.m n K ( j.G $ 4 * X                                                   ",
"                                                      O h.n n K 3X7 e 4 X                                                       ",
"                                                    X : t s.s.SXh e *                                                           "
};
