/* XPM */
static char *wallskeleton1727856564[] = {
/* columns rows colors chars-per-pixel */
"64 50 172 2 ",
"   c #020202",
".  c #080607",
"X  c #070906",
"o  c #090906",
"O  c #0C0C0C",
"+  c #11100E",
"@  c #0E0E10",
"#  c #141414",
"$  c #181715",
"%  c #191916",
"&  c #161618",
"*  c #171918",
"=  c #1C1C1C",
"-  c #211F1D",
";  c #1F201C",
":  c #21211E",
">  c #1F1F21",
",  c #1F2120",
"<  c #242423",
"1  c #292624",
"2  c #272824",
"3  c #2A2926",
"4  c #262629",
"5  c #2A2728",
"6  c #2D2C2A",
"7  c #302B25",
"8  c #322E2B",
"9  c #2F302C",
"0  c #33312E",
"q  c #39332F",
"w  c #312F30",
"e  c #353431",
"r  c #3A3633",
"t  c #363833",
"y  c #3B3A35",
"u  c #373938",
"i  c #3D3D39",
"p  c #413A36",
"a  c #423D3A",
"s  c #483E3C",
"d  c #3E403B",
"f  c #43423D",
"g  c #49443E",
"h  c #3F4440",
"j  c #454541",
"k  c #4A4641",
"l  c #464943",
"z  c #4C4B44",
"x  c #4E4E49",
"c  c #504742",
"v  c #524C46",
"b  c #524E49",
"n  c #594F49",
"m  c #4D524B",
"M  c #525047",
"N  c #54534C",
"B  c #5A544D",
"V  c #5A584E",
"C  c #565551",
"Z  c #5A5651",
"A  c #555A53",
"S  c #5C5B54",
"D  c #5B5E58",
"F  c #61574D",
"G  c #615A4D",
"H  c #605750",
"J  c #615C55",
"K  c #635E59",
"L  c #5C6157",
"P  c #5D615A",
"I  c #626156",
"U  c #696156",
"Y  c #63635B",
"T  c #6B645B",
"R  c #64695F",
"E  c #6A695D",
"W  c #736A5C",
"Q  c #6C6660",
"!  c #656B62",
"~  c #6D6963",
"^  c #736C63",
"/  c #726D69",
"(  c #786B63",
")  c #6F7267",
"_  c #6C766B",
"`  c #747264",
"'  c #7C7265",
"]  c #797863",
"[  c #74736A",
"{  c #7B746B",
"}  c #737A6F",
"|  c #7D7B6C",
" . c #7C7771",
".. c #777870",
"X. c #7D7972",
"o. c #807E65",
"O. c #80776E",
"+. c #837A6E",
"@. c #807770",
"#. c #837D72",
"$. c #887C70",
"%. c #7D806F",
"&. c #8B8968",
"*. c #97936D",
"=. c #848173",
"-. c #8B8376",
";. c #8D8B76",
":. c #85827B",
">. c #8A847A",
",. c #8C8B79",
"<. c #928571",
"1. c #948B7C",
"2. c #969572",
"3. c #9C9976",
"4. c #929478",
"5. c #9B917D",
"6. c #9E9B78",
"7. c #9A9673",
"8. c #A29D79",
"9. c #AEA677",
"0. c #A4A17B",
"q. c #ABA57D",
"w. c #AFAA7B",
"e. c #B2AB7E",
"r. c #948E81",
"t. c #979485",
"y. c #9A9383",
"u. c #9A9388",
"i. c #A69B84",
"p. c #A69D87",
"a. c #A19A90",
"s. c #ADA584",
"d. c #ADAA83",
"f. c #ACA68E",
"g. c #B2AD83",
"h. c #B5B184",
"j. c #BBB484",
"k. c #BBB984",
"l. c #B7B28A",
"z. c #BCB58B",
"x. c #BDB98A",
"c. c #B7AF98",
"v. c #B6AA92",
"b. c #BBB794",
"n. c #BFBA94",
"m. c #BDB39B",
"M. c #BFBC99",
"N. c #C2BA85",
"B. c #C4BD8B",
"V. c #C1B69C",
"C. c #C2BB9F",
"Z. c #C3BB97",
"A. c #C6BCA1",
"S. c #C7C18E",
"D. c #C8C18D",
"F. c #C6C192",
"G. c #CBC494",
"H. c #CFC995",
"J. c #CEC799",
"K. c #D3CC9E",
"L. c #CDC1A7",
"P. c #CCC9A0",
"I. c #D4CDA3",
"U. c #D7D2A8",
"Y. c #D9D4AA",
"T. c #CEC6B1",
"R. c #D5CFB5",
"E. c #DBD5B1",
"W. c #E0D7AC",
"Q. c #E1DBB7",
"!. c #E2DEB8",
"~. c #EAE6C2",
/* pixels */
"  = < & < < 0 2 5 t t = + # O # 6 < > < = < < * 6 = 3 6 < = 4 = 6 = < e e t e d d d d f 9.D.S.F.N.N.N.e.w.s.B.8.j l a i 2 8 6 O ",
"  = <   * : 6 3 0 i = & * * = @ . @ < = @ < < = @ = < < = 4 < 6 ; , 6 u e e h h m l l %.&.w.B.j.F.w.H.Y.B.g.e.h.E h x y 6 6 * = ",
"  # #     < 0 y 0 t * = > = = = = & # # * * = < & = = 4 2 6 6 4 = 4 u y t u h l A L A e.k.0.B.N.N.K.!.~.Z.W.D.B.3.m l l 9 6 O = ",
"  < *     6 6 i y 6 = < * = 6 4 6 < * = & & * 4 4 = 6 < 0 9 < < 6 t i y d d h A L R P 8.N.e.x.k.B.J.E.Q.~.I.s.8.0.L d z i y   4 ",
". < 5 #   < 6 t y e < < < > = 4 < < 4 , < = = = , > < 6 e < 6 9 9 d f u d h A L  .! [ 0.h.d.P.N.G.K.I.K.M.l.h.*.] x h z t 6 . u ",
"# ; # < . > # t 3 < # * > < < - = 4 4 = , = = * & < < u 6 4 0 0 0 l d u h A r.T.R.f.5.j.j.I.b.G.U.I.Y.Z.G.K.k.k.4.C l f i < > u ",
"  * O = * # : i y e < < # : : = = < < < < 4 = = = 6 6 d 6 6 u t t x f d A #.p.c.m.C.y.m.0.H.l.G.K.K.Y.n.F.F.x.h.! m l j i = e u ",
"  * * O   % 3 i f t ; 6 ; < < # = * > < 6 < < = < 2 e l 9 6 t t t m d f L ^ E 4.a.| -.y.;.l.x.l.S.e.D.x.z.h.0.| L L l x z = i u ",
"  :     % = 6 i a u 3 3 2 9 6 w ; , ; < 6 = : ; 2 : 3 d 9 9 0 t f x f l J ` O.g 3 J U T 1.g.q.2.2.3.2.6.l.h.) A R A j m x % t f ",
". = < t 6 t 6 i j i i 9 t w t u 9 3 , ; 9 + , = 9 ; 9 d 9 0 t t t N f z l . B +.U -.Z N ' } d.d.s.F.l.d.&._ A A L m i N x : t f ",
"* # w 4 6 < 3 9 z i i 0 i u i t t 3 2 < ; ; = 0 d 3 d g 9 0 t d d S l l R z i ^ G B #.f T ! } _ %.;.4.) P P A D C l x l z - 9 t ",
"# # < < O = 6 i f d u 9 d i h i t 0 0 9 2 6 * y f 0 g M t t d f d A l A y : b ' W + : y ^ { _ [ P ! ! P A D P A l m l d l < 6 t ",
"@ & * -   % 6 f f y 6 3 j d f j d d t 9 9 9 ; d d t f M d d d g d N x m f   M ^ b 8 z p U T O.' >.,.! I P P D A m m d f l < 8 8 ",
"@ * < = * < 3 f j y 2 0 i d N D f d t t t 2 ; d g d f M d d d t d M f V m X + : q K G q n H B U { U +.:.! Y D D A A f l z - 6 6 ",
"O < 4 < < < t y f y t t g 0 f N z f t 7 t t 2 d M d g N g g z f f M m N A - : B ` G o g c n p B H J ( ' | I R Y N N x g g : w e ",
"= ; < . < 4 w y i 3 f i t = t i f f t 0 t t 9 f g f g m m V V M z M N N | < : n p % o s g g p n r c v y # m ! P L V x x g = 6 3 ",
"& , < = < < t f f 6 f y < - t J i d 0 9 t y y g N f z N g V L M z x N Z F 1 *     7 - y s p p s p c a   p q Y I Y I M B z ; 6 6 ",
"= * * < # f f j M f t y t 5 + t g g d d d M z f g d z L M V M V M A { / T 8 < o # 6 1 r c q p p s y p O t t E N I ~ N M z = 4 y ",
"# 6 6 e < g g f l g 0 f 6 e < f t g M f g d f g M f x J S M M L Z =.-. .K q 7 = 7 k p 1 s q s p s s - 8 8 q K N B d d v x 2 < 6 ",
"6 t A a 9 t t z g g t e y y u g g g z z A g g g f f z Z V V V L L ~ / J H r q = e s s q q p s q 1 a   r r a v A g f t l j 6 ; 0 ",
"4 i T Y < < t l a 0 0 2 f 0 a p f g g d V g V m f f g R Y ` { ! ~ ~ Y Z b p 6 8 y k a y q s 8 p q 6 . p q 8 z v g d d j f e y = ",
"= = z Y 2 t t a i t 0 = t t i t d d M d M E R M I ;.V [ I Y / Q ~ R Q b p s q < 8 p g g 8 q p < r =   r y 3 a v V I f j y z j 6 ",
"; 6 j Z e 6 < a y a 7 $ r y 6 t 9 7 g m g I g M Z =.X.=.#.t. .:./ / ~ k 0 q s 8 8 s g y s p p 5 r O O - p 8 p z V f u g d z j < ",
"  % e x z f 6 i u y - = 3 y 0 t 0 : d f g g M d z I N I ~ / ~ T Q Q a = + s 7 q k a 1 y 7 7 8 q - - - # p : p 0 f y l j 9 0 e = ",
"< o : 0 e z 8 y e 6 = = 5 0 y 9 t t T 3.~ l y y B x y N b b S ~  ./ C 5 . q w 8 8 7 % y 8 q s p - 1 = > k s y r y f d 0 0 u t 3 ",
"l . * 6 6 a j y y l 0 6 : t B f t f ` +.T ~ i f y j N x a b S  ./ #.S s % # r r r 7 > r s r p 8 7 8 > a K s p q t 6 6 u 9 0 0 3 ",
"K . 4 & 6 t a t d x i 0 3 N Y S t t a N b b z l g z I M k Z r.u.b T  .K y - 1 r 1 1 < 8 r r q q 1 8 b ' b r 8 r q 6 z g 6 3 6 < ",
"B i # = - t i u 3 3 d e 0 2 t k a f u N z l j f d z N N Z a.u.#.6 a / Q K + 8 1 & - 8 - a 8 # 1 8 ^ ^ k 1 > t q 2 3 f 8 B ` f * ",
"g N : < 3 6 e y % < e 0 6 : f 6 0 6 Z a < i k z t f x A @.-. .~ b j Y Q K 8 1 5 # 5 8 5 r r S ' -.n s < + * - 0 # < 9 6 z v f < ",
"f S < 4 6 y < u y 6 6 0 t 6 6 y t 6 e e 6 6 0 f g g N ^ / X.b / Z 5 n ( Z c 7 & < 8 3 8 6 K -.b k 8 &     = . 6 : = e 0 t y 7 + ",
"e v f 6 e u d i f f z d f k z f k Z B B b D K K B Z E 0 / #.< J y - 1 v z k c s w r a Q  .O.v 6 < 6 O     % 3 t e t t s g i < = ",
"4 y x * < < = < 3 0 6 0 6 t e e j y a i j y y z M v i B z K l l a a 1 c s c z f s C { O.@.W 6 < e w 7 y b z k k s p g s t i 5 y ",
"& y x 6 w : u u 3 < < #   + . @ o & @ 8 8 > = = 5 4 y H j B / 1 p p q r a s r k B b Z Q / a 8 8 8 k n Z c s f s i t 6 g 0 i : : ",
"@ 6 i s w 6 w e t N ] ^ 8 q y 0 e 8 6 8 5 8 r r 8 8 y 8 e 1 < u 5 p a 8 k s s p J K T K k 6 p r a s s c t 6 6 - = < 3 a t 0 : + ",
"= : t k B Z 7 e a f N J i r t f f p 6 e y u s z z k a # 4 - w r a k s j k s v Z k K K J r p y q s q y r y <   . % < < j y 6 <   ",
"5 # t ( p.L.V.p 6 e 8 z 0 B J 8 y y u y 8 t y y a g :   a 6 w r q a p s p c 8 g y a K b 0 p r a r q : 8 0 < < = 6 < 6 f t 6 # . ",
"= # f F o.$.8.( = e j e Y i.A.m.v e e 0 u y z u r y     y r 8 y 1 y s s 7 g r 1 k a k / 7 7 1 q 8 q 1 p < 5 e w w # : f y 6 = + ",
"4 < 0 g v F $.$.z e e l B $.-.r.{ 8 e e t j S f a -     r w 8 y - p 8 p y 8 g < e k f J   & 0 w 4 : 8 p 8 - 8 7 , < # p t 6 % O ",
"- = < q p v f . A < 6 t b < Z T T 6 8 e 6 0 0 0 0 3 .   r 8 w p 0 8 p 5 s q r p < < j k   8 r 7 1 - 8 q r + O + # 2 + y 0 3 =   ",
".   + # v : t J Z i 8 < B g b j t 0 w e < e y t 3 8 # + r w 8 q y - y u 8 a 8 q a 4 % 7 - r r w 5 - 8 8 8 - 5 5 u 6 $ f 0 3 #   ",
"O   o O 2 - 6 k S f f 5 r t v v C t e 8 e e e > < : 6 2 0 r r < 8 3 q 8 5 q a : 8 8 O # r 5 q 8 > 7 r 8 8 = o e t 6 : y 3 1 3 8 ",
"y 6 % G 5.m.;.3 < < j 6 6 5 l z 8 e e e e 6 5 - - 4 * 5 t 8 y 7 - < = 8 r 5 t s y q & 8 5 8 7 5 & 8 r 7 r #   * 6 3 - p y t 0 : ",
"i e N ' <.s.V.5.5 e 6 t e = # ; e 6 w 6 8 y y a e 6 e 5 e 8 r r 8 8 + 8 1 q < r a p y r r r e r q 0 7 = 7 - > i 6 u u y 8 : < # ",
"< 8 f v H K W 5.^ 4 6 t : 8 0 * < d y i z z t 5 8 e 6 = - - : y e 8 4 = 8 w 7 - 6 r y q 8 4 8 q < 8 1 1 1 < 6 j | +.K g = = t f ",
"t 5 7 p q K W n k 6 6 t w w u w 0 4 6 u i f i z N x x j x a 6 6 p r e 5 < 5 8 < 5 7 5 6 7 w 8 : 1 6 < 6 8 y 6 B ( v k p a z f < ",
"5 = 6 = v a # K j b 6 d C Q Z ~ Q Q r 6 t 5 < < < 6 t i i i C Z Z b Z z k a 6 q w r 8 5 5 8 r y f s y e < = w b 1 q p z y 7 6 % ",
"- # = O e . # g 6 s 8 > 6 b B K b b N j 6 t k U <.T & o g z > 5 w w t t f k z v k z i z l k v f j j q 5 ; 8 k 0 0 b a 6 4 = O # ",
". . o - y z i s i z 4 w = > j z e z 5 z 6 < N a J W z = a z 6 5 e w 6 = > 8 u t 6 : e 8 e r i a u a a s 0 = i k a 6 < 4 # #   + ",
"    # < 8 y 6 e s y < 6 e e e h a e j w k j h s i s a b k e 6 i y a u u u i 6 6 6 w 6 = # 4 = 6 > 5 e 6 e a j 6 6 e w 4       = ",
"*         @   6 6 e C a < e > 6 r 6 u y i t l s e - = i e 5 a i u w y y b C l 6 t j j a 6 x C i a j y i h 6 5 > = 4 @ 6 e w O # "
};
