/* XPM */
static char *wall1727856564[] = {
/* columns rows colors chars-per-pixel */
"64 59 139 2 ",
"   c #000000",
".  c #0B0705",
"X  c #070806",
"o  c #080A07",
"O  c #0B0D0A",
"+  c #140E0A",
"@  c #0E110C",
"#  c #11130E",
"$  c #18110D",
"%  c #131611",
"&  c #161913",
"*  c #191C16",
"=  c #1C1F19",
"-  c #1F2017",
";  c #1E211B",
":  c #21251E",
">  c #2E251C",
",  c #24281F",
"<  c #382517",
"1  c #31241E",
"2  c #242620",
"3  c #262921",
"4  c #2A2E25",
"5  c #2C2F28",
"6  c #342E22",
"7  c #2C3027",
"8  c #2E3229",
"9  c #343126",
"0  c #31352C",
"q  c #34392E",
"w  c #343730",
"e  c #363B31",
"r  c #393E33",
"t  c #3C3F39",
"y  c #643B1E",
"u  c #493322",
"i  c #423C2A",
"p  c #593720",
"a  c #4D3F30",
"s  c #3C4235",
"d  c #3E4439",
"f  c #4C452E",
"g  c #53422D",
"h  c #4A4233",
"j  c #41463B",
"k  c #444A3D",
"l  c #564434",
"z  c #5B523A",
"x  c #66462E",
"c  c #704624",
"v  c #7B4C29",
"b  c #614E3D",
"n  c #755136",
"m  c #725834",
"M  c #77613C",
"N  c #464D40",
"B  c #494E43",
"V  c #4C5345",
"C  c #4E5249",
"Z  c #505747",
"A  c #51564C",
"S  c #535B4C",
"D  c #565C51",
"F  c #595F53",
"G  c #6B5742",
"H  c #645B45",
"J  c #57604E",
"K  c #58604F",
"L  c #5B6354",
"P  c #5F6956",
"I  c #5E6358",
"U  c #606A57",
"Y  c #60665B",
"T  c #646D5B",
"R  c #766A5F",
"E  c #66705C",
"W  c #69735F",
"Q  c #676C61",
"!  c #6A6F65",
"~  c #6B7362",
"^  c #6E7964",
"/  c #717B67",
"(  c #71766B",
")  c #737B6B",
"_  c #777C70",
"`  c #797F73",
"'  c #875F35",
"]  c #95663C",
"[  c #906F5A",
"{  c #A7754C",
"}  c #76816C",
"|  c #78836E",
" . c #7B8473",
".. c #7E8874",
"X. c #7F8579",
"o. c #818C77",
"O. c #81867A",
"+. c #838C7A",
"@. c #86917C",
"#. c #89947E",
"$. c #B38663",
"%. c #A38C7C",
"&. c #CE9A7A",
"*. c #868C80",
"=. c #888F82",
"-. c #8B9482",
";. c #8E9983",
":. c #919D86",
">. c #91978A",
",. c #959C8C",
"<. c #979D90",
"1. c #96A18A",
"2. c #99A48E",
"3. c #9CA493",
"4. c #9FA994",
"5. c #A1AB96",
"6. c #A0A798",
"7. c #A4AC9B",
"8. c #A7B09D",
"9. c #A8B19E",
"0. c #A7AEA0",
"q. c #A8AFA1",
"w. c #ADB5A4",
"e. c #B0B8A7",
"r. c #B0B7A8",
"t. c #B4BBAC",
"y. c #B8BFB0",
"u. c #C89D82",
"i. c #D5A485",
"p. c #D4A68A",
"a. c #C5AD9E",
"s. c #D6AA90",
"d. c #D4B19C",
"f. c #C4C6BD",
"g. c #E9C8B5",
"h. c #EACBB8",
"j. c #E9DDD6",
"k. c #E8E4DE",
"l. c #F6E7DF",
/* pixels */
"                                                                                                                                ",
"                                                                                                                                ",
"                                                                                                                                ",
"                                                                                                                                ",
"                                                                                                                                ",
"                                                                                                                                ",
"                                                                                                                                ",
"                                                                                                                                ",
"                                                                              X X                                               ",
"                                                                        X O % & % @ X                                           ",
"    X X X   X                                                   X o O # & ; , 7 3 * % # o                 X                     ",
"      X X     X X o o     X       X           X X X X @ # & % % % & = : q S U E K 8 : ; % X             O # @                   ",
"      X X o O O X X o o o o # @ @ O o     X @ * : : : * ; 8 d s 4 4 q V E / ..../ L V : * o           O # * & @ X               ",
"  X X X X & = * % # # % & & = & % * & # @ & : q N S K d s P ~ ^ L L T / ..#.#.#.o.W k , & O X     X o % : r 4 & O               ",
"    X O O o * 3 2 = * ; : 4 8 8 8 q 3 3 - 8 k P W  .o.E L | @.@.o.....#.;.:.:.1.#.^ k , * & & & # # % 2 V T F 0 % X             ",
"  X O o X % 2 4 j e q e s e 4 B Z S V k 4 s K ~ @.;.;.o.} ;.,.:.;.;.;.:.:.1.5.9.:.^ V q 4 3 0 0 4 2 e S T V q 4 = O             ",
"  o O % % = 4 k k k j q 4 s J ..@.@.E P J E } @.o.5.4.;.;.2.7.5.4.4.4.4.5.e.t.w.1.| E V k V V k e V s T } 3 & , % @ X           ",
"  X % % & 4 s N S J k J T k J P W W #.o.^ | #.1.8.5.1.4.w.w.w.7.3.3.3.7.t.t.w.9.1.o.^ E E ~ / ) T Z 4 S B ; O @ O o o           ",
"    O O # = 8 N Z j Z E } } W } #.} 1.@.} #.1.4.8.2.8.w.w.w.e. .      I t.t.e.w.2.:.@.| | o.#. .) K } ) 3 3 ; @ @ O             ",
"  X O % ; s j r d d L P P T } ..;.4.| | o.;.4.9.w.7.w.9.8.w.e. .      I 9.5.4.w.t.5.1.L S ~ D L -.) k k B 8 @ ; ; O             ",
"  X # * : 0 r s k k J k J S C T E 4.1.1.1.8.w.5.5.w.w.w.w.t.y. .      L 7.:.;.1.4.8.2.O.<.7.7.4.4. .C ; 2 = @   *               ",
"    # & * 3 Z E E P ^ W ..+.....1.4.5.5.8.w.9.5.9.w.r.t.y.t.<.V       r -.q.q.4.1.5.5.9.r.t.O.V ,.<.N   4 7 8 # ;               ",
"    X # 3 k L W } } #.;.#.;.;.>.8.8.8.w.e.w.9.w.r.t.y.7.X.D N ;       O 0 k _ <.r.y.y.y.y.y.7.Y F F D * 7 s 3 X                 ",
"    X % 8 V E ^ ..#.:...1.w.7.w.w.w.e.t.t.t.e.t.t.,.Q V d = &           O @ 4 e F ;.r.y.y.y.y.` D X.~ 8 S k * @                 ",
"      O 8 K ^ | } #.@./ 4.t.w.<.8.y.t.y.t.<.6.` B s 3 : e q 3 O         & 7 3 * & e d ) 4.y.r.*.B ! d s C 4 7 7                 ",
"      o s W ^ @./ :.~ 5.r.y.r.q.4.3.>.` -.L k 4 % # : e d 8 : O         8 z H k s : @ 3 d 0.<._ k ) = 8 ,   @                   ",
"        s ^  .~ -.) >.e.y.w.-.( ` ! 7.>.>.A j 4 s r e n u.g q O       + M $.j.a.G k e = 4 A ,.( I 2 * d 7 @   @                 ",
"        & L Z D V e S Q B X.3.t.y.y.r.y.2.S * s S r y p.h.[ a $       $ { i.k.f.s.u 9 % X 2 *.>.C @ # 8 , ; 8 ,                 ",
"        o ; 0 3 : 5 X.<.7.y.y.y.y.y.q.r.D 0 : i h x &.g.l.%.l > + . $ 1 ] &.h.$.d.v p < + % % =.A 2 : 2 ; ;   *                 ",
"            ; 2 o r ! <.6.6.t.y.y.y.<.A 4 * q k s * > b R g q   # & X   f ' c m c 6 : ; %   % * s 0 O     : s ; #               ",
"          = @ ; Q O.y.y.t.y.y.y.w.*.( = % & 0 s 9 * ; 3 0 7 #   X o     # f m G H N 2 & 5 O   X B d % @       0 & X             ",
"              4 w -.X.q.r.q.O.( =.r.C : % 5 r 5 q = # * 3 8 o     o       q k V V 8 O O 5 & o     w 3 & & o     O               ",
"          w 5 o     = w N 5 t r ` _ & o & 7 3 - 0 & @ @ : 3     X X X     O - q q 8 * X ; ; @     8 k S N                       ",
"          r 5 X       % w Y B w N D o O @ ; * ; 8 % O @ : ;       X X     X & 8 q , # @ 3 *   O X O I % 2 r o                   ",
"            : o o *   B F F N Q N 7.N O & ; , j 3 O X X o %       X       # * ; ; % o * 8 4 &   X D     & 3 8 5                 ",
"              % % 2 C w X 2 4 w C *...4 ; ; , s = O X   X #       X       O % * ; & o # ; : %   8   4   o X w O                 ",
"            O = ; : 5 w r = * & j 0.X.w 8 s e d 3 O X   X @               O O     X @ * ; , &   3 j *     5 % 4                 ",
"                  O %   B 0 o j w ! _ r ; 3 0 0 ; O X X o @ X X X   X X   @ # O @   X @ ; ; @   r X   = A 0 r 5                 ",
"                    X * 2   @ 4 d d I s 4 d S V q 8 0 3 ; 3 @   * 3 3 , r s k 4 % @ @ , 8 , & X 3 % X 4   ;                     ",
"                          = & 2 r * C V 3 q s k d 8 e 7 4 d % X , * ; % - 8 , 3 @ o @ # , , @ 3 j @ 5 X                         ",
"                              3 % : 2 4 2 8 4 2 , 7 7 3 ; 3 7 s N N d s q q 4 7 3 q 8 , ; 4 0 8 4 =                             ",
"                                  8 r   X     X X   X   X   X     X   X X       X   X   X     o             X :                 ",
"                                    2 8 3 2 3 ; , & ; , , 7 , 4 2 ; 2 ; & ; 7 , , 3 , ; ; - ; 7 :     = e 8 O                   ",
"                                    2 0 e q 3 , k 4 O o 3 s 0 q 4 3 8 * & : k 0 - * e s % * , d q       X                       ",
"                                    & ; , ; % @ q 3 O o * 3 4 8 ; ; = X   : 7 ; * % 8 q X @ ; q 4                               ",
"                                    @ % % X * % : o O @ @ & % o X % # O @ O ; @ * * & , # @ @ , &                               ",
"                                    X o @ X   X % O X X X X o o X O O X X @ # @ @ o o * % @ @ # @                               ",
"                                      X   X     X X   X             X       O       X O       X X                               ",
"                                                                                                                                ",
"                                                                                                                                ",
"                                                                                                                                ",
"                                                                                                                                ",
"                                                                                                                                ",
"                                                                                                                                ",
"                                                                                                                                ",
"                                                                                                                                ",
"                                                                                                                                ",
"                                                                                                                                ",
"                                                                                                                                "
};
