/* XPM */
static char *walldoll1727856565[] = {
/* columns rows colors chars-per-pixel */
"64 56 219 2 ",
"   c #080B0F",
".  c #090D11",
"X  c #120E12",
"o  c #0C1216",
"O  c #0E1519",
"+  c #0F181C",
"@  c #131115",
"#  c #1C1215",
"$  c #11161A",
"%  c #1B1519",
"&  c #121A1E",
"*  c #1B191D",
"=  c #221417",
"-  c #22161A",
";  c #241A1D",
":  c #2A1A1D",
">  c #331B1E",
",  c #141D21",
"<  c #1B1E22",
"1  c #231E22",
"2  c #2B1E22",
"3  c #331E22",
"4  c #391F22",
"5  c #172025",
"6  c #192226",
"7  c #1C252A",
"8  c #1F282E",
"9  c #1E2B30",
"0  c #222126",
"q  c #2B2226",
"w  c #24252A",
"e  c #2B2529",
"r  c #21292E",
"t  c #2C2A2E",
"y  c #3A2125",
"u  c #332429",
"i  c #3B262A",
"p  c #3C292D",
"a  c #242D32",
"s  c #2C2D32",
"d  c #342D32",
"f  c #3D2E32",
"g  c #263136",
"h  c #2A3136",
"j  c #26343A",
"k  c #2A343B",
"l  c #27383E",
"z  c #2D383F",
"x  c #333134",
"c  c #3C3235",
"v  c #33353B",
"b  c #38373B",
"n  c #482528",
"m  c #43292D",
"M  c #4A292C",
"N  c #502729",
"B  c #532A2D",
"V  c #442D32",
"C  c #4C2D31",
"Z  c #522D31",
"A  c #43353A",
"S  c #483338",
"D  c #44393D",
"F  c #4A393D",
"G  c #57363A",
"H  c #66393B",
"J  c #773739",
"K  c #2E3B42",
"L  c #313E45",
"P  c #3C3D42",
"I  c #493C41",
"U  c #513C42",
"Y  c #643E42",
"T  c #2E4247",
"R  c #334046",
"E  c #3A4145",
"W  c #34434B",
"Q  c #3C454B",
"!  c #38494D",
"~  c #374951",
"^  c #3A4C54",
"/  c #3B4F58",
"(  c #3C5257",
")  c #3E535B",
"_  c #3E5960",
"`  c #444145",
"'  c #43434A",
"]  c #4A4549",
"[  c #48454C",
"{  c #424C4D",
"}  c #5C4246",
"|  c #57464A",
" . c #444B53",
".. c #4A4D54",
"X. c #414F58",
"o. c #574E54",
"O. c #4B5254",
"+. c #42555D",
"@. c #4C575A",
"#. c #4C545C",
"$. c #53555D",
"%. c #59555B",
"&. c #58575A",
"*. c #6D4549",
"=. c #75494B",
"-. c #6E4E53",
";. c #63535A",
":. c #695659",
">. c #78565A",
",. c #415760",
"<. c #4B5760",
"1. c #435B64",
"2. c #4C5C64",
"3. c #455F68",
"4. c #535C63",
"5. c #575B64",
"6. c #5B5D64",
"7. c #635D64",
"8. c #6B5F68",
"9. c #775F67",
"0. c #4E6367",
"q. c #46616A",
"w. c #49646D",
"e. c #53636B",
"r. c #58656A",
"t. c #5D656B",
"y. c #4C6770",
"u. c #4C6B74",
"i. c #4E6F78",
"p. c #536770",
"a. c #5B6770",
"s. c #546C74",
"d. c #5B6C74",
"f. c #536F78",
"g. c #4F7079",
"h. c #52747C",
"j. c #587378",
"k. c #5C737C",
"l. c #676667",
"z. c #64636A",
"x. c #6B646D",
"c. c #79676B",
"v. c #636770",
"b. c #686770",
"n. c #636B73",
"m. c #6B6B74",
"M. c #756D74",
"N. c #7F6C72",
"B. c #637274",
"V. c #687577",
"C. c #6C7379",
"Z. c #787778",
"A. c #853B3C",
"S. c #874848",
"D. c #944444",
"F. c #86565A",
"G. c #945659",
"H. c #A74747",
"J. c #B74C4B",
"K. c #A65656",
"L. c #B45756",
"P. c #98605D",
"I. c #86696B",
"U. c #996567",
"Y. c #846B71",
"T. c #86797B",
"R. c #957576",
"E. c #AA6968",
"W. c #BF6E69",
"Q. c #CF5452",
"!. c #CB5754",
"~. c #E0605C",
"^. c #C66A65",
"/. c #C9756F",
"(. c #E66B66",
"). c #E9736D",
"_. c #E67B74",
"`. c #C6827C",
"'. c #DA827A",
"]. c #537780",
"[. c #567C84",
"{. c #597D84",
"}. c #627B82",
"|. c #707B82",
" X c #5A838B",
".X c #5D888F",
"XX c #5E8A91",
"oX c #648389",
"OX c #788787",
"+X c #628E95",
"@X c #6A8B92",
"#X c #629097",
"$X c #64939A",
"%X c #6B969C",
"&X c #75969A",
"*X c #779DA1",
"=X c #858986",
"-X c #93908F",
";X c #869592",
":X c #8E9A95",
">X c #AE8B89",
",X c #B98986",
"<X c #AD9590",
"1X c #A2A69F",
"2X c #869FA1",
"3X c #9BA8A2",
"4X c #98B0AE",
"5X c #A9B3AC",
"6X c #AAB8B3",
"7X c #B3BCB4",
"8X c #DB8F86",
"9X c #C8908A",
"0X c #DA958C",
"qX c #E39B91",
"wX c #CABAAD",
"eX c #D0C5B7",
"rX c #C1CBC0",
"tX c #E8D0C0",
"yX c #EBE9D7",
/* pixels */
"tX/.>XZ.C.C.}.s.].s.f.i.u.u.u.i.g.h..X#X#X$X$X$X$X$X$X$X*X$X$X$X$X$X$X$X$X$X#XXX Xh.g.g.q.q.q.+.q.+.a.) +.) +.1.+.W R R K K k a ",
"qXW.8XT.C.n.a.s.s.i.i.u.u.u.u.i.g.g. X#X#X$X$X$X$X$X$X$X$X$X$X$X$X$X$X#X#XXX X X[.g.y.w.3.,.,.+.) ) +.l.7.O.+.+.) R k j g a 8 7 ",
"J.E.9XM.n.d.f.f.i.d.m.a.a.u.u.u.i.i. XXX#X#X#X$X$X$X$X#XXXXX$X$X$X#XXX X X X X[.h.y.,.q.,.+.) +.r.R.=X=X0.7.) ! R g 8 7 7 a k k ",
"9X9X-Xa.d.s.a.i.i.d.|.m.z.Z.z.k.h.i.h..X.X#X#X$X$X#X.X.X X.XXXXXXX X[. X[. X[.g.u.q.,.,.r.6.2.=XT.Q h s ! O.O.a 8 7 7 a l l k r ",
">X-XC.a.a.s.s.i.j.OXM.a 7 7 d -.n.r.j. X X.X$X$X$XXX X X X X.X.XXX Xg.].[.].g.g.y._ ) 4.T.0.6.h 5 & 7 & 6 &.a 8 9 g g 8 a 7 < , ",
"b.b.a.p.s.i.y.u.B.OX[ s 1 , & , w E -.k.h..X#X#X$XXX X X X[..X$X%X Xg.g.g.g.g.g.q._ ) 7.h E < $ o o o o + l.E g a 9 7 5 , & , , ",
"b.n.f.s.y.s.w.y.y.k.A , , , , , & 5 7 { h. X+X+X#XXX X X[.[. X%X%X Xu.u.g.g.g.u.q.) 4.x & $ & $ + o o + + O.9 7 5 , , , , , , , ",
"n.d.k.s.e.u.w.3.q.B.| 6 6 6 6 5 6 , & 8 $.h. X+X#X.X X X[.g.h.XXXXg.g.u.u.u.u.q.3.) O.7 $ o $ $ 5 + o o O O.E , , , + , , , 6 7 ",
"B.k.k.k.p.u.q.1.3.OXx.7 6 6 7 w 7 , & 5 x O. X X.X X X[.h.g.g.j.g.y.u.w.u.u.q.q.+.2.b + & $ & & 1 * + o , $.#.9 5 , , , , , 7 7 ",
"{.oXoXk.p.i.q.q.1.1.$., 5 5 w w 7 7 5 & 6 e r. X X Xh.h.h.u.w.q.q.w.q.i.w.w.a.0.l.E * o 6 * 2 ; 2 0 & o & I W K g 5 , , , 5 7 a ",
"@X*X@X}.j.w.q.q.1.1.%.q , 6 q m M q w , & 7 L {. Xh.q.0.&X;X5X=X0.OXn.0.l.c.$.0.O.6 o o 0 ; ; y u 3 O o 5 ! L ~ K a 7 5 , 7 g K ",
"7XrX2X@Xk.y.u.w.1.,.[ , & 7 p B G M M 5 & 5 r r.&XOX0.OXOX:XoX3XOX7XV.=XT.F +.t.` p o o 2 : n # y : O . + g L ~ W a a 7 6 7 z K ",
"yXyX7X&X{.p.y.w.q.+..., & & u M B M m , & , 6 r.:X;XV.:XOXV.s.r.! l z @.! { V.r.K $ . o : y @ @ 2 * o   $ K W W W l k 7 6 a K L ",
"6XrX4X@Xk.y.y.y.q.1.2.b & & 6 u i p q < & & < l.j.1X-X:X..l z E z b ; o o h V.^ ^ ,   o ; y M * $ o . o 7 Q W W R K g 8 5 a L W ",
".X@X+Xh.y.q.w.q.1.+.a.l., + & * < 0 + + o + & T B.E { R h ) +.g z k z 6 o O.` 9 { {   . o O o o o . . $ { O.W W K k g a < a K W ",
"3.y.s.3.q.q.1.+.+.q.,.6.P + o O 6 O + o O & r s { R b x 7 8 0 k g 8 g j %.h j 8 6 & o *   . . .   . O r L L L L L j a a 6 r L W ",
") 3.y.3.3.3.1.) 1.1._ 2.%.q & $ , o o o o w h D x P t r 7 < 7 6 g r w h h 8 g 7 6 5 s 0       . . o & K L L L L L g a r 7 a K L ",
"1.3.y.3.3.1.,.,.1._ ,.) <.| p & & & & K 6 } h G I k < r w , 7 , 7 7 r < & , 8 8 7 6 < v a o $ O , r L L L W W W L j a 8 < a K L ",
"3.3.3.3.1.,.,.,.1.q.1._ ,.e.| u a 7 W +.F A c F s x e R 7 , , 6 7 6 w 1 0 7 r g 6 6 , 8 W z 7 g v L L L L L L L L g a 7 < a K K ",
"3.3.3.3.1.,.,.,.q.q.w.q.3.+.,.z ) ) q.] >.S C d t a w a 9 , , 7 r , 7 & , 5 7 r 6 , , , 9 W L L L K W W L L L L L g a 7 < a K L ",
"3.3.3.3.3.1.1.1.q.u.u.w.q.,.,.Q +.1.0.} =.f C d w 7 7 , 8 8 7 7 7 7 r 7 7 5 5 6 6 , & , . 2.i.+.( ~ ~ W W L L L K a a 7 6 a L L ",
"3.w.y.y.u.w.3.1.w.i.u.w.q.1.3.X.1.q.I.G =.S d w 6 , 5 , O & 6 , & , , $ 7 7 & 5 5 6 , , O 3.+Xu.,.) ~ ~ W T L K K a a 7 6 g K L ",
"w.w.1.u.u.u.y.y.u.u.u.y.w.q.w.+.f.l.} V *.p 0 * 6 6 , < , , 6 O & , & $ & < & o & , & 6 $ l y.3./ ~ ~ ! W W W K K a a , , a K L ",
"u._ ^ _ 3.w.i.u.u.u.u.i.u.y.y.w.y.%.V :.G w 7 r 6 , O o o , & O O & $ $ $ & , & , , & & $ w q.[.g.,.~ R L L K K k a 9 7 < a K L ",
"y./ W ~ / 3.i.u.u.u.u.u.y.w.y.e.p.} A v V 7 6 $ o - ; < & $ & & O , @ & $ ; - : # $ O , $ a ].%X$X.X) g a g a 9 r a 9 6 6 a K L ",
"_ W L L L / 1.w.u.u.y.u.3.q.q.q.;.o.v x t & X X @ > > : $ & & & + o % - # > 4 # = 4 , $ O < y.f.[.]./ 9 7 6 6 5 < r 9 7 , 9 g g ",
"~ K K K L P L / 3.u.u.y.1.) ) e.Z.o.F b A ; # X M J.!.A.- 1 & , , , % # A.H.!.H X > 3 O O , k L ,.1.L 6 6 6 6 6 7 7 8 7 < 7 9 7 ",
"W K k K K K K K L ^ ) 3.q.+.) $.>.G A *.c y   @ J /.eXQ.4 y , $ & O $ > J.wX/.A.=   m o , , 7 I [ W T 9 5 7 6 7 , 6 6 , 7 7 7 7 ",
"L K K K K K v K K K K L ~ / ) z.-.m f G s i X X M D.D.A.: M & & O $ 4 = A.J.H.B X X N O , @ < t A a ~ k 6 7 7 7 7 5 7 7 < 7 7 7 ",
"L K L K K K K K K K k K K L @.c.H m H V 6 w M . X N M : n 1 6 6 6 , ; > > N B -   m 1 , . X - i I a W W a 7 7 6 5 6 7 6 7 7 7 7 ",
"L K L L K L K K K K K K K L 6.9.Y f S x 6 < c B N > n J J *.| z K ` J J J m B B Z f @ @     . m *.s K ! l 7 5 , , , 6 5 7 7 7 7 ",
"L K K P P L L L L K K K L ^ Y.F.*.M w s p r 0 & u S.L.'.E.;.{ ! +.] =.^.^.H.A.u 1 , X <   . X t t 6 a a j 9 , , 5 , , , 7 7 7 7 ",
" .I U .... . . . . .' Q ^ X.2.=.H e & q < w w d G.U.P.I.#.E g j l j *.*.P.S.L.H * 6 $ . - - * e w 5 7 7 a 5 , , , , , 5 8 7 7 7 ",
" .$.<.%.$.#.X.#.<.X.X.X.X.<.2.=.G q < m 0 < < ;.Y.l.$.W k 7 o   o o @ g P d Y Y q . < . - # X w t 5 6 6 , , , & , + , 5 6 5 9 9 ",
" .$.$.<.<.<.<.<.#.X./ X./ ,.,.G Y C & 1 * & v I.$.^ ~ W l & o   o   $ r g h w ' v $ . o ; . $ r a 7 8 7 6 5 , , & , , 6 6 6 g g ",
" .<.<.4.2.5.<.<.1.,./ / / / ) Q } H & o 1 O [ o.k k L h z z o o o 6 7 h 6 k & r h & . o   $ a a g 8 a 8 7 8 6 , , , 5 6 6 6 g 9 ",
"7.5.5.e.2.5.4.<.1.p.e.2.,._ ) ~ ~ ] c $ % O L W g a K z g 7 6 & 6 r 6 a r 7 7 a r o o .   8 j j K a a r 7 7 7 5 5 5 5 5 6 , 5 5 ",
"z.e.5.a.a.5.6.t.z.x.M.b.5.4.,.~ / /  .r o o r L 6 7 a 8 g 7 o $ 6 a 9 a , 6 o & 6 O o   6 g k z L K a a 7 7 6 6 5 5 6 7 7 , , 5 ",
"5.5.5.a.z.8.8.a.n.x.b.a.p.5.<.^ / ^ ~ ~ V & o a r r a 7 7 r o o & 6 , 6 , 6 7 & o o o & r a z T K a a a r 7 a 7 9 7 7 7 7 5 5 7 ",
"5.8.8.x.8.v.a.a.n.b.a.y.p.3.1.,.) / / ) Q k & % & & , , & , o   o . @ $ $ o X   o . a K L R ^ ( W a a a a 7 a r 8 8 9 7 7 7 7 7 ",
"z.8.9.9.x.|.8.b.m.b.a.p.y.q.q.3.,.+.) ) / ! OXt O @ $           .           . . . 7 K ~ ) ) ) ( W g k K z r K a a 9 7 7 7 7 8 r ",
"U.E.9.8.|.b.|.|.n.0.w.w.w.y.r.a.q.,.) ) ) ;Xj.) , o &     o o   $ o . . .   . . . $ 5 a W ) ) ) ~ K L L z k K z g a a 7 r 7 7 7 ",
"'._.`.>X,X`.`.^.R.,.1.1.q.q.q.w.3.,.,.) r. X4.0.T 7 @ 5   o o   . o o . .       . o o O 5 g +.q.1.~ L K K K L L W K k a r 7 a a ",
"8X0X0X<X9X8X0X`.Y.1.q.+.3.q.3.3.,.,.,.p.3X:Xj.z & O o X   . N   . .             . . o O & , ( q.^ ^ W L K a g g K K k a 7 7 7 a ",
"U.R.R.M.N.Y.T.T.j.1.1.1.1.1.q.) ( 0.r.oXB.@.( ! 6 o     o   .                   .   . o & 9 q.=X|.+.! W L K z K K z a a r a r a ",
"9.G.;.;.5.5.<.3.1.q.+.1.) q.) ) r.5X5XOX5 w w 6 g 6     o o o         @   .   . o . o . . K ) d.) j ! v K k g K g v a a 6 7 a k ",
"G.>.#.$.<.<.,.,.q.+.) q.q.q.q.:X6XOX( ( B.q o &.R 7 o     o .     #   6 o     . . O &   , , 9 9 8 Q g & k z g z g h a a 7 r a K ",
"-.../ X.,.,.,.,.) q.) ) q.) r.0.( 0.T V.P f ! D g o                 . &     .     . . o o O 6 5 7 5 z & 7 k h z k k a a r r a k ",
"-./ X.5.,.,.X.X.) ,.,.,.1.5.8.,.&.~ R @.u w z c         o       . o 1 %           o o , $ O + o 5 5 5 o o K k h g h a 8 7 r a g ",
"K./ / X.,./ ,.,.1.) ,.1.1.|.;.P O.g 6 E E O D o         ; .     . % *   .         . o & 9 , + & + 5 o & o & j z k g r 8 a a k h ",
"#.I #./ X.,./ ,.1.,.3.1.w.<XN.I s < , x w 6 & + o   o 5           o     . .         o o o o + $ + & o o     7 R / W K a a l K W ",
"Q.G.G.;.$.+./ ,.,.1.1.3.M.Y ;.s F o , c 5 8 + o o   + o 7 +             .         . + o o o o .   . .     o & T ) W W g k W R W ",
").!.L.K._.E.#.X.) ,.,.e.,. .< V q O O r 5 j o o .   & + 7 & o . o . . 6 o O       . O   . , .     o o   o o + r ~ / K K L W L k ",
").G.;.;.U.;.X./ ) ,.) ' L v O 7 O o o r 8 7 +     o , + & o o & , . . . o .             @ . o . o O &   . o r & K ~ ~ W ! ~ ! ^ ",
"K.K.K.G.>.F.<.,.,.,.4.L a d O o O o , 5 8 , o     o + o o . o j 6 . o 5 + o       .   .   . . . . O &     o 5 O g l L K a K / ~ ",
"_.(.).~.F.F.<.,.,.,.^ l a , O , o O O 5 O + . .   o + o o   + + O . . o o t . + , o         . . + O       o o . 7 k L K 7 a K ~ "
};
