/* XPM */
static char *axe1727808009[] = {
/* columns rows colors chars-per-pixel */
"64 62 216 2 ",
"   c #FF0000",
".  c #040403",
"X  c #080704",
"o  c #0B0906",
"O  c #04040A",
"+  c #0C0B09",
"@  c #07090B",
"#  c #110E0A",
"$  c #16120D",
"%  c #1A140E",
"&  c #110F10",
"*  c #1E1913",
"=  c #1B1814",
"-  c #361B0A",
";  c #241D15",
":  c #271E17",
">  c #262017",
",  c #2C251B",
"<  c #29231B",
"1  c #332B1F",
"2  c #392E1F",
"3  c #352D22",
"4  c #382F22",
"5  c #3B3225",
"6  c #3D3428",
"7  c #373029",
"8  c #2F2923",
"9  c #5C2C03",
"0  c #5E300D",
"q  c #512D16",
"w  c #622E01",
"e  c #642F06",
"r  c #663104",
"t  c #6B3302",
"y  c #69340A",
"u  c #64330A",
"i  c #723601",
"p  c #7D3A03",
"a  c #763803",
"s  c #633213",
"d  c #673B1A",
"f  c #413627",
"g  c #413628",
"h  c #453A2B",
"j  c #4A3E2E",
"k  c #4F3221",
"l  c #433A31",
"z  c #4B3E31",
"x  c #5D3B22",
"c  c #7E441A",
"v  c #4D4132",
"b  c #4D4239",
"n  c #524534",
"m  c #554836",
"M  c #524739",
"N  c #554939",
"B  c #5C4D3B",
"V  c #5A4836",
"C  c #5E503C",
"Z  c #55422C",
"A  c #68452D",
"S  c #76512F",
"D  c #604F3D",
"F  c #62533E",
"G  c #7B573C",
"H  c #5D5343",
"J  c #55514C",
"K  c #59534F",
"L  c #534C42",
"P  c #655542",
"I  c #695742",
"U  c #6C5A45",
"Y  c #645B4C",
"T  c #6C5D49",
"R  c #675B45",
"E  c #705D48",
"W  c #675D51",
"Q  c #6D604C",
"!  c #74634C",
"~  c #79674E",
"^  c #6D695C",
"/  c #6E6451",
"(  c #746554",
")  c #7D6B52",
"_  c #746858",
"`  c #7F725F",
"'  c #7C7360",
"]  c #7D736B",
"[  c #823D02",
"{  c #864002",
"}  c #8C4303",
"|  c #86450A",
" . c #944502",
".. c #9D4A02",
"X. c #964A07",
"o. c #864517",
"O. c #985617",
"+. c #A24C01",
"@. c #A94E02",
"#. c #A04F0D",
"$. c #AD5102",
"%. c #A8570A",
"&. c #B35302",
"*. c #BA5702",
"=. c #BC5B04",
"-. c #BA5E0B",
";. c #B55E17",
":. c #BF6316",
">. c #855B33",
",. c #906030",
"<. c #C35B03",
"1. c #CA5E03",
"2. c #D05E02",
"3. c #CD6B0B",
"4. c #CC6508",
"5. c #D26303",
"6. c #DA6603",
"7. c #DE6903",
"8. c #D46B0A",
"9. c #D67109",
"0. c #CD6914",
"q. c #CC7417",
"w. c #D4791B",
"e. c #DC741E",
"r. c #E36C03",
"t. c #E96F03",
"y. c #E47205",
"u. c #EC7404",
"i. c #EB7A05",
"p. c #E67908",
"a. c #F37503",
"s. c #F57C04",
"d. c #F97D04",
"f. c #F37C0A",
"g. c #EA7A18",
"h. c #F77F12",
"j. c #C36B21",
"k. c #DE7C28",
"l. c #C87231",
"z. c #ED7F26",
"x. c #E77E33",
"c. c #9F6541",
"v. c #816D53",
"b. c #896650",
"n. c #84735C",
"m. c #857156",
"M. c #83634A",
"N. c #B27855",
"B. c #867964",
"V. c #887765",
"C. c #947F67",
"Z. c #857E73",
"A. c #C77948",
"S. c #DF8012",
"D. c #EC830B",
"F. c #F58305",
"G. c #FA8405",
"H. c #FB8A05",
"J. c #F7870C",
"K. c #FB9305",
"L. c #F89209",
"P. c #F48415",
"I. c #F58B19",
"U. c #E68015",
"Y. c #F08620",
"T. c #97836B",
"R. c #9B8C74",
"E. c #948B7B",
"W. c #978A77",
"Q. c #8E8473",
"!. c #A1816C",
"~. c #B08D72",
"^. c #A99576",
"/. c #CD8043",
"(. c #C18154",
"). c #E88640",
"_. c #CB986C",
"`. c #D09872",
"'. c #9A9283",
"]. c #968E85",
"[. c #AA9E86",
"{. c #B09F82",
"}. c #A19C91",
"|. c #ACA185",
" X c #BBAC8B",
".X c #B6A687",
"XX c #AFA593",
"oX c #B8AB93",
"OX c #BFB59E",
"+X c #B0ADA7",
"@X c #C1B394",
"#X c #CDBB9B",
"$X c #C4AF8D",
"%X c #E7B182",
"&X c #C2BBAD",
"*X c #C3B5A2",
"=X c #D1C19C",
"-X c #CFC4A9",
";X c #DDCAA6",
":X c #D9C5A6",
">X c #CCC6BA",
",X c #DCD3B9",
"<X c #D4CBB5",
"1X c #E1CEA8",
"2X c #E3D6B3",
"3X c #D2CCC0",
"4X c #DCD5C3",
"5X c #E4DBC4",
"6X c #E9E2C9",
"7X c #F5EECF",
"8X c #EAE6D9",
"9X c #F9F3DE",
"0X c #F6EFD1",
"qX c #F3EFE4",
"wX c #F6F4E9",
"eX c #FBFAF4",
/* pixels */
"                                                                                  Q Q                                           ",
"                                                                                  ! ! ! B M                                     ",
"                                                                                ! ! ! Q m v , <                                 ",
"                                                                              ~ ! ~ C C v 5 ; ; > < 1                           ",
"                                                                            ! ! ~ ! m v 5 , ; % , 1 5 5 3 5                     ",
"                                                                          Q ~ ) ! v v v h 2 > , 6 2 5 6 5 6 v g                 ",
"                                                                        Q ! ) ) P n m h f 1 > 2 6 4 2 , 5 3 5 v C               ",
"                                                                        ! ) m.! m B m v j 4 1 f 2 2 1 ; 1 5 g n v < ,           ",
"                                                                      ! ~ v.) ! C F m h f 5 1 2 h 5 1 , h 2 6 1 < $ + X @       ",
"                                                                    ! ~ v.) ) ~ F V v v h 1 1 2 v 2 , 2 5 , * # # X . . . .     ",
"                                                                    ~ ) v.v.) C m h 3 2 h 2 2 5 v 5 1 5 , % # o . . X . . . X   ",
"                                                                  ~ ) ) ) ! m h 1 > > * , h h h v 5 h 3 ; $ o . X X o . X . . O ",
"                                                                Q ! ~ R m 3 = @ o @ @ . 4 h h 5 5 5 2 * $ # X . o o + o . . .   ",
"                                                                                        2 n 6 5 5 5 5 ; $ $ X . # o $ X . .     ",
"                                                                                        v n f 5 2 , < ; * % o # X X o . .       ",
"                                                                                      ~ I h 1 2 > ; $ # $ o o o X X . .         ",
"                                                                                ~ ( G E E F f * $ $ # + . X X X . . . O         ",
"                                                                            T.U U U R E I F V B C v v o X X X + . . O           ",
"                                                                            ~ U m P E F D V j V ! H 6 % X o . . . O             ",
"                                                                            E I D B B n V n v n B , # @ O X . . O               ",
"                                                                            I F U B S q.J.0.A B 4 +         @                   ",
"                                                                          ( P B >.w.w.O.L.K.S.j =                               ",
"                                                                        l.j.q.w.L.H.d ,.J.u.X.; &                               ",
"                                                                    I.H.G.G.F.H.H.H.g.J.r.[ & - o.                              ",
"                                                                  D.0.F.J.G.G.| 9.G.a.4.} [ u X.                                ",
"                                                                f.q q a.G.i.G.3.d.t.$.{ i i y                                   ",
"                                                              f.u.o.0.s.<.| G.s.5. .i w t y                                     ",
"                                                            - } d.d.4.8.f.s.6.&.[ r 9 r                                         ",
"                                                    E.Y   g.%.3.G.d.} y.F.6. .i 9 9 r                                           ",
"                                                  XX_ _ ).F.F.u d.G.d.s.2.} w 9 9 s                                             ",
"                                            B.^.|.6X6X@X.X_._.o.G.G.a.<.[ 9 9 9                                                 ",
"                                          W V.] R.:X@X1X9X9X:Xc.G.d.5.{ 9 9 0                                                   ",
"                                            Q.+X].N._.;X1X.XR.R.g.5.+.{ y                                                       ",
"                                            ^ ,XeXN.H.). X#XQ.4Xb. .p a                                                         ",
"                                        4X/   T.8XT.H.f.c =X6X2XL e e                                                           ",
"                                        B.&XQ.k.A.;.H.H.H.`.0X*XJ k                                                             ",
"                                        }.4XwX~.G.y H.H.y.A.7X^.W K                                                             ",
"                                          ' 9X>Xq.X.G.r.&. .$X1X( J                                                             ",
"                                      W.M.0.N.(.D.p.y.*. .t G :X:XoX^                                                           ",
"                                    E.^. Xl.X.p.H.a.<. .t r ( -X1X;X'                                                           ",
"                                      ! >Xl.u F.a.1...t t A ' B.;X5XW.=                                                         ",
"                                      q e.i.%.u.<.+.i t x J R.C 2X,XE.3                                                         ",
"                                  z.H.3.3.d.a.1.+.i y V.` W.2X|.oX6XXXC                                                         ",
"                                  G.H.X.9.u.<.@.i t R.>XE.B .XwX-X>X|.Q 5                                                       ",
"                                h.H.G.t a.5.$.p i C.6X&XY H B 8XqX` 6 6 6 8                                                     ",
"                              J.H.G.G.u.6.&.p t A XX|.v Y l = +X&XC v M B 6                                                     ",
"                            P.H.G.J.G.6.*.p t y     ^ L b $ 6 U E.].XXN   b                                                     ",
"                          I.G.H.G.d.6.&.[ t y         7 7   T P H <XeX` H R                                                     ",
"                        I.H.J.G.d.7.$.{ r y             H   8 g M W XXz I _                                                     ",
"                      Y.H.H.H.G.r.*.{ t r                   < M M Y P n ) W.z                                                   ",
"                    P.G.H.G.G.7.=. .t y                       3 4 g B V U C.B l                                                 ",
"                  x.K.H.H.F.r.*. .t y                           n.P H U U P T b                                                 ",
"                  H.H.G.s.6.*. .i t                             R.n.E V.m.B R 4 *                                               ",
"                L.K.H.s.r.<.} t t                               B n.U P B M H B B                                               ",
"              G.H.K.G.t.<. .w w                                   P E V , z v B P _                                             ",
"            h.G.H.G.a.<. .t w                                       M U n B B 4 V.! ^.                                          ",
"          P.d.G.d.t.2.+.t r                                         M ! P B z f Y / R.$X                                        ",
"        g.d.d.s.u.5.+.i t                                             T R z j 4 : n B ^.                                        ",
"      g.o.-.s.a.2.+.i e s                                             V.{.7 g Z._   / B.:X                                      ",
"    h.8.: 0.a.r.@.i t s                                                 _ z z 5X3X    C  X X                                    ",
"  g.G.u.3.a.6.@.a t y                                                   W V W V.qXE.    Q =X                                    ",
"g.f.d.G.d.t.@.[ t y                                                       ~ L B OX8X_   M R. X                                  "
};
