/* XPM */
static char *d791afdb1b7b4fc5bad1069e3dcdb63c[] = {
/* columns rows colors chars-per-pixel */
"64 56 178 2 ",
"   c #FF0000",
".  c #030305",
"X  c #050609",
"o  c #08070B",
"O  c #07080C",
"+  c #0A090D",
"@  c #1D0304",
"#  c #080611",
"$  c #0D0D12",
"%  c #100F15",
"&  c #100F18",
"*  c #111116",
"=  c #14141B",
"-  c #18151B",
";  c #2C0405",
":  c #2C070B",
">  c #27070B",
",  c #350609",
"<  c #390708",
"1  c #171721",
"2  c #171822",
"3  c #1B1A25",
"4  c #1E1E2B",
"5  c #221F25",
"6  c #201F2B",
"7  c #1F202E",
"8  c #222027",
"9  c #23222D",
"0  c #2A252D",
"q  c #2B292F",
"w  c #242433",
"e  c #2A2631",
"r  c #2D2A33",
"t  c #272739",
"y  c #27283A",
"u  c #2B2B3C",
"i  c #312C36",
"p  c #322E39",
"a  c #35323B",
"s  c #39343E",
"d  c #343037",
"f  c #400607",
"g  c #4A0A07",
"h  c #480A08",
"j  c #4D0707",
"k  c #2D2E41",
"l  c #302F44",
"z  c #2F3147",
"x  c #333243",
"c  c #3A3641",
"v  c #3D3A44",
"b  c #34354A",
"n  c #383749",
"m  c #37384A",
"M  c #3C3A4A",
"N  c #363750",
"B  c #3B3B53",
"V  c #3D3E5A",
"C  c #413D45",
"Z  c #413E4B",
"A  c #443F50",
"S  c #3F415D",
"D  c #44414C",
"F  c #48454D",
"G  c #4B494F",
"H  c #444351",
"J  c #494751",
"K  c #4C4A54",
"L  c #42435C",
"P  c #4C4B5B",
"I  c #504C55",
"U  c #514F5E",
"Y  c #54525D",
"T  c #5A575F",
"R  c #444562",
"E  c #474966",
"W  c #4A4A64",
"Q  c #4B4C6B",
"!  c #444969",
"~  c #504F6F",
"^  c #4C506F",
"/  c #545362",
"(  c #5D5C66",
")  c #54536C",
"_  c #5B5662",
"`  c #4D4F70",
"'  c #4E5173",
"]  c #525374",
"[  c #585777",
"{  c #555679",
"}  c #58577C",
"|  c #565A7E",
" . c #5A5A7E",
".. c #5C5C75",
"X. c #635F69",
"o. c #615D67",
"O. c #5F617B",
"+. c #64626D",
"@. c #69656E",
"#. c #696672",
"$. c #6C6A75",
"%. c #64627E",
"&. c #6D6B78",
"*. c #646370",
"=. c #716D77",
"-. c #716E7A",
";. c #74717D",
":. c #7A757F",
">. c #8C7770",
",. c #8B7A75",
"<. c #897D7D",
"1. c #AF8F74",
"2. c #A38979",
"3. c #D19C5F",
"4. c #E9A847",
"5. c #F0AD4B",
"6. c #F1AC44",
"7. c #F7B044",
"8. c #FAB244",
"9. c #C59765",
"0. c #DCA462",
"q. c #5A5C81",
"w. c #5F6080",
"e. c #636483",
"r. c #6A6A86",
"t. c #64668B",
"y. c #666A8A",
"u. c #66688D",
"i. c #696989",
"p. c #6B6C8C",
"a. c #676883",
"s. c #767581",
"d. c #7A7682",
"f. c #7C7984",
"g. c #70718E",
"h. c #7F7E8A",
"j. c #6E6E90",
"k. c #6A6C96",
"l. c #6B6C92",
"z. c #6C6F9A",
"x. c #6E7091",
"c. c #6E7096",
"v. c #6E719A",
"b. c #717191",
"n. c #727295",
"m. c #74759A",
"M. c #78779A",
"N. c #7A7B9D",
"B. c #77799C",
"V. c #807D87",
"C. c #837F8A",
"Z. c #84818D",
"A. c #8F8384",
"S. c #868591",
"D. c #8A8793",
"F. c #8C8A96",
"G. c #8D8998",
"H. c #938E98",
"J. c #93929E",
"K. c #98939F",
"L. c #BF9D81",
"P. c #9795A3",
"I. c #9996A4",
"U. c #9B99A6",
"Y. c #9E9CAB",
"T. c #A19EAC",
"R. c #A19FB1",
"E. c #A2A1AD",
"W. c #A5A3B1",
"Q. c #A8A5B3",
"!. c #AAA9B6",
"~. c #ADACBA",
"^. c #ABA7B8",
"/. c #B0AEBF",
"(. c #B5B0BF",
"). c #B5B3C2",
"_. c #BBB9C7",
"`. c #C1BFCD",
/* pixels */
"                                                                                                                                ",
"                                                                                                                                ",
"                                                b Q ] ] L m                                                                     ",
"                                                V Q ] ] ] Q B                                                                   ",
"                                              w B Q  .e. .[ ) m                                                                 ",
"                                              9 m W e.y.p.i.e.]                                                                 ",
"                                              4 x W w.t.v.m.j.a.[                                                               ",
"                                              3 u W e.e.u.v.m.b.e.                                                              ",
"                                            % - r W e.p.x.n.c.c.x.[                                                             ",
"                                            * * 9 W a.n.N.N.B.c.k.t.                                                            ",
"                                          % * * 9 P r.n.N.N.N.m.l.k.)                                                           ",
"                                          $ * * 6 P e.b.M.N.m.n.l.z.r.                                                          ",
"                                        $ $ % * 4 P e.i.b.b.b.j.p.z.g.P                                                         ",
"                                        $ $ % * 4 P e.e.i.p.i.i.t.k.g...                                                        ",
"                                        + $ $ = 9 P e.e.e.e.a.t.u.j.r.%.                                                        ",
"                                        + $ % - u W a.t.t.t.u.p.x.p.r.%.n                                                       ",
"                                      o + $ * 4 n ) a.y.y.y.y.r.r.r.a.%.) 4                                                     ",
"                                      . + $ * r H ) x u w w w 9 w w w t x x                                                     ",
"                                  P W b + + = u L Q q.q.q. .} { ] ] ] ~ Q Q w /                                                 ",
"                                  K v P o o * u B E | q.q. . .} { ] ] ] ] Q R Y                                                 ",
"                                  D 6 F o o * w b L ' q.q.q.q. .} { { ] ] ] Q B                                                 ",
"                                  e - d o o $ 3 x V Q | q.q.q.q. . .} { ] ] ` Q u                                               ",
"                                  5 - 0 o o $ $ u B E { q.q.q.q.q. . .{ { ] ] ` L                                               ",
"                                    % o o o o . w b R ^ q.q.q.q.q.q.q. . .{ { ] Q b                                             ",
"                                      . . + o o 3 x V Q | q.] 4 9 4 4 4 4 4 k ` ] W 9                                           ",
"                                      o . o o o * u B R u k 4 4 4 4 3 1 3 6 9 3 4 4 x                                           ",
"                                      o . . o o o w x 2 3 9 9 9 4 4 4 4 4 4 4 4 4 4 3 3                                         ",
"                                      o . . o o o 3 * - 3 4 w 9 6 7 6 4 4 4 4 4 4 4 4 - =                                       ",
"                                      o . . . o o o $ = 3 u S S S S L L L L L V V V V B 3                                       ",
"                                      . . . . o o . $ * w ^ ' ' ' ' ] ' { { { ] ] ] ] Q W l B B                                 ",
"                                        . . . o o . o 3 V Q z ! Q Q Q Q b w w t t t N S Q Q Q Q Q                               ",
"                                        . . . o . . $ k B b w L Q Q Q Q Q x w w w w b V Q Q Q Q Q                               ",
"                                        . . . o . . o t b 3 4 z Q ` ` ` ` ! k w w w k V Q Q Q Q Q W                             ",
"                                        . . . . . . o 4 9 - 3 3 Q ' ' ` ' ' Q k w w u V Q Q Q Q Q Q W                           ",
"                                        . . . . . . o $ % * 1 3 B ' ' ' ' ' ' E u w y V Q Q Q Q Q Q Q                           ",
"                                        . . . . . . o o $ * - 3 w ' ' ' ' ] ] ] Q u t V Q Q Q Q Q Q Q W                         ",
"                                        . . . . . . o o o % = 1 - Q { { { { { { ] Q t R ! Q Q Q Q Q Q Q W                       ",
"                                          . . . . . o o o $ = 1 - s.).).).).)./.~.R./ b O.Y.W.T.Y.U.I.P.P.                      ",
"                                          . . . . o o o o $ * - & J.`.`._._.).(.~.~.~.E.!.!.Q.E.Y.T.Y.T.Y.U.                    ",
"                                          . . . . o o $ $ + % = # U.).).).).L.5.9.Q.!.Q.W.E.2.5.3.P.I.K.K.J.                    ",
"                    . . . . . . . .       o . . o o o o $ o $ * O W.^.^.Q.Q.0.7.6.D.T.Y.Y.U.9.8.8.A.H.F.F.F.                    ",
"                  . . . . . . o . . .     O . o o o o $ $ + $ % 8 Y.T.T.Y.T.1.8.4.Z.I.P.P.J.,.7.7.f.D.S.S.Z.Z.                  ",
"                  . . . o o . . o o . . . O o o o o o $ $ $ $ $ v P.J.J.J.J.F.2.<.F.F.F.F.F.Z.,.>.h.V.f.f.f.f.                  ",
"                . . . . . . . . o o . . . O $ . o O o o % $ $ $ G G.G.G.D.D.D.D.Z.Z.Z.Z.C.C.Z.C.f.d.s.;.s.;.;.                  ",
"                . . . . . . . X . . . . . o - . o o o $ $ * $ $ Y C.C.h.h.h.f.d.d.d.s.s.s.s.s.;.;.;.-.$.&.$.#.#.                ",
"                . . . . . . . . . . X . . . $ . o o o $ $ = - $ T :.:.s.;.;.;.-.=.=.$.$.$.$.$.$.$.#.#.@.+.+.+.o.                ",
"                . o . . . . . . . . o o . . o . o o $ o * * - $ Y &.&.&.$.#.*.+.+.+.+.+.( ( X.X.( ( ( ( ( ( _ Y                 ",
"              . o X o o o X X X X . o o . o $ . o o $ o * * - $ K Y Y Y Y K K K K K K J G G J J G G F D D D D D Z               ",
"            o o o o o o o o . . . . o o . . $ . o $ O $ * - - q I K J J J G G D D F D D D Z Z Z C C C v v v v v v               ",
"          . . o X o o o o o X . . . . o o . o o . o o $ * - * J / / / P P P K J J J J H H H H A D D D Z Z Z D Z D D             ",
"          . . o O O O . X X . . . . . . O . . o . o $ o = % 9 Y Y U I K J G D D D Z Z v v v v v c c v v M Z Z Z Z D             ",
"          . . . o O O O O X . . . . . . o X . . . o o $ * % D P K K J D D v c c s s s x d a s s x x x c c c v v v v v           ",
"        . . . . o o O o o o . . . . . . o o . . . . o * o 9 H H H F D M c c a r 9 9 9 6 5 8 9 9 9 r d d s s c v c v c c         ",
"        . . . . . . O o o o . . . . X o o O O . . . $ o $ c C Z Z C v c d d e 9 e e > : : ; @ $ p e e p p d s c c s s c         ",
"      . . . . . o O O o o . . X X o o o o o O o . . $ o 3 v c c c c s p r 9 9 e e 0 , , < f ; o r e q 0 e r p d d p p p p       ",
"    . . . O . . . o O O o o X . . . o o o O o o . . o * p a a d d d i e 9 9 9 e e 0 h g h j ; o e e e 0 9 e r i r r r r r e     ",
};
